<svg width="334" height="60" viewBox="0 0 334 60" fill="none" xmlns="http://www.w3.org/2000/svg">
<path d="M74.056 48.922C73.916 48.7633 73.7527 48.6233 73.566 48.502C73.3793 48.3713 73.1693 48.2593 72.936 48.166C72.7027 48.0727 72.4507 47.998 72.18 47.942C71.9187 47.886 71.6387 47.858 71.34 47.858C70.472 47.858 69.8327 48.026 69.422 48.362C69.0207 48.6887 68.82 49.1367 68.82 49.706C68.82 50.098 68.9133 50.406 69.1 50.63C69.296 50.854 69.5993 51.036 70.01 51.176C70.4207 51.316 70.9433 51.4607 71.578 51.61C72.2873 51.7593 72.8987 51.9367 73.412 52.142C73.9253 52.3473 74.322 52.6273 74.602 52.982C74.882 53.3273 75.022 53.7987 75.022 54.396C75.022 54.8533 74.9333 55.25 74.756 55.586C74.5787 55.922 74.3313 56.202 74.014 56.426C73.6967 56.65 73.3187 56.818 72.88 56.93C72.4413 57.0327 71.9607 57.084 71.438 57.084C70.9247 57.084 70.43 57.0327 69.954 56.93C69.4873 56.818 69.044 56.6593 68.624 56.454C68.204 56.2393 67.812 55.9687 67.448 55.642L67.938 54.844C68.1153 55.0307 68.3253 55.208 68.568 55.376C68.82 55.5347 69.0953 55.6793 69.394 55.81C69.702 55.9407 70.0287 56.0433 70.374 56.118C70.7287 56.1833 71.0927 56.216 71.466 56.216C72.2593 56.216 72.8753 56.0713 73.314 55.782C73.762 55.4927 73.986 55.0633 73.986 54.494C73.986 54.0833 73.874 53.7567 73.65 53.514C73.426 53.262 73.09 53.0567 72.642 52.898C72.194 52.7393 71.6433 52.5853 70.99 52.436C70.2993 52.2773 69.716 52.1 69.24 51.904C68.764 51.708 68.4047 51.4513 68.162 51.134C67.9287 50.8073 67.812 50.378 67.812 49.846C67.812 49.23 67.9613 48.712 68.26 48.292C68.568 47.8627 68.988 47.5407 69.52 47.326C70.052 47.102 70.6633 46.99 71.354 46.99C71.7927 46.99 72.1987 47.0367 72.572 47.13C72.9547 47.214 73.3047 47.34 73.622 47.508C73.9487 47.676 74.252 47.886 74.532 48.138L74.056 48.922ZM76.4839 53.99V49.706H77.4359V53.822C77.4359 54.6527 77.5759 55.2733 77.8559 55.684C78.1452 56.0947 78.5699 56.3 79.1299 56.3C79.5032 56.3 79.8626 56.2207 80.2079 56.062C80.5626 55.894 80.8752 55.6607 81.1459 55.362C81.4166 55.054 81.6219 54.6993 81.7619 54.298V49.706H82.7139V55.852C82.7139 55.9827 82.7419 56.0807 82.7979 56.146C82.8539 56.202 82.9379 56.2347 83.0499 56.244V57C82.9379 57.0093 82.8492 57.014 82.7839 57.014C82.7186 57.0233 82.6579 57.028 82.6019 57.028C82.4152 57.0093 82.2519 56.9347 82.1119 56.804C81.9812 56.6733 81.9112 56.5147 81.9019 56.328L81.8739 55.348C81.5566 55.908 81.1226 56.3467 80.5719 56.664C80.0306 56.9813 79.4426 57.14 78.8079 57.14C78.0426 57.14 77.4639 56.874 77.0719 56.342C76.6799 55.81 76.4839 55.026 76.4839 53.99ZM84.2784 54.9C84.2784 54.4427 84.4091 54.0507 84.6704 53.724C84.9317 53.388 85.2911 53.1313 85.7484 52.954C86.2151 52.7673 86.7517 52.674 87.3584 52.674C87.7131 52.674 88.0817 52.702 88.4644 52.758C88.8471 52.814 89.1877 52.898 89.4864 53.01V52.394C89.4864 51.778 89.3044 51.288 88.9404 50.924C88.5764 50.56 88.0724 50.378 87.4284 50.378C87.0364 50.378 86.6491 50.4527 86.2664 50.602C85.8931 50.742 85.5011 50.952 85.0904 51.232L84.7264 50.56C85.2024 50.2333 85.6691 49.9907 86.1264 49.832C86.5837 49.664 87.0504 49.58 87.5264 49.58C88.4224 49.58 89.1317 49.8367 89.6544 50.35C90.1771 50.8633 90.4384 51.5727 90.4384 52.478V55.852C90.4384 55.9827 90.4664 56.0807 90.5224 56.146C90.5784 56.202 90.6671 56.2347 90.7884 56.244V57C90.6857 57.0093 90.5971 57.0187 90.5224 57.028C90.4477 57.0373 90.3917 57.0373 90.3544 57.028C90.1211 57.0187 89.9437 56.944 89.8224 56.804C89.7011 56.664 89.6357 56.5147 89.6264 56.356L89.6124 55.824C89.2857 56.244 88.8611 56.5707 88.3384 56.804C87.8157 57.028 87.2837 57.14 86.7424 57.14C86.2757 57.14 85.8511 57.042 85.4684 56.846C85.0951 56.6407 84.8011 56.37 84.5864 56.034C84.3811 55.6887 84.2784 55.3107 84.2784 54.9ZM89.1644 55.46C89.2671 55.3293 89.3464 55.2033 89.4024 55.082C89.4584 54.9607 89.4864 54.8533 89.4864 54.76V53.696C89.1691 53.5747 88.8377 53.4813 88.4924 53.416C88.1564 53.3507 87.8157 53.318 87.4704 53.318C86.7891 53.318 86.2384 53.4533 85.8184 53.724C85.3984 53.9947 85.1884 54.3633 85.1884 54.83C85.1884 55.1007 85.2584 55.3573 85.3984 55.6C85.5384 55.8333 85.7437 56.0293 86.0144 56.188C86.2851 56.3373 86.6024 56.412 86.9664 56.412C87.4237 56.412 87.8484 56.3233 88.2404 56.146C88.6417 55.9687 88.9497 55.74 89.1644 55.46ZM99.6337 57.14C99.0643 57.14 98.537 56.9953 98.0517 56.706C97.5663 56.4073 97.1883 56.034 96.9177 55.586V57H96.0637V46.78H97.0157V51.232C97.3423 50.7373 97.7343 50.3407 98.1917 50.042C98.649 49.734 99.181 49.58 99.7877 49.58C100.301 49.58 100.758 49.6873 101.16 49.902C101.57 50.1167 101.92 50.406 102.21 50.77C102.499 51.1247 102.718 51.5307 102.868 51.988C103.017 52.436 103.092 52.898 103.092 53.374C103.092 53.8873 103.003 54.368 102.826 54.816C102.658 55.264 102.415 55.6653 102.098 56.02C101.78 56.3653 101.412 56.6407 100.992 56.846C100.581 57.042 100.128 57.14 99.6337 57.14ZM99.4097 56.3C99.8017 56.3 100.166 56.2207 100.502 56.062C100.838 55.9033 101.127 55.684 101.37 55.404C101.612 55.124 101.799 54.8113 101.93 54.466C102.06 54.1113 102.126 53.7473 102.126 53.374C102.126 52.8607 102.014 52.38 101.79 51.932C101.575 51.4747 101.272 51.1107 100.88 50.84C100.497 50.56 100.044 50.42 99.5217 50.42C99.1483 50.42 98.7983 50.504 98.4717 50.672C98.1543 50.84 97.8697 51.064 97.6177 51.344C97.375 51.6147 97.1743 51.9133 97.0157 52.24V54.508C97.053 54.76 97.151 54.998 97.3097 55.222C97.4683 55.4367 97.6643 55.6233 97.8977 55.782C98.1403 55.9407 98.3923 56.0667 98.6537 56.16C98.915 56.2533 99.167 56.3 99.4097 56.3ZM104.634 53.99V49.706H105.586V53.822C105.586 54.6527 105.726 55.2733 106.006 55.684C106.296 56.0947 106.72 56.3 107.28 56.3C107.654 56.3 108.013 56.2207 108.358 56.062C108.713 55.894 109.026 55.6607 109.296 55.362C109.567 55.054 109.772 54.6993 109.912 54.298V49.706H110.864V55.852C110.864 55.9827 110.892 56.0807 110.948 56.146C111.004 56.202 111.088 56.2347 111.2 56.244V57C111.088 57.0093 111 57.014 110.934 57.014C110.869 57.0233 110.808 57.028 110.752 57.028C110.566 57.0093 110.402 56.9347 110.262 56.804C110.132 56.6733 110.062 56.5147 110.052 56.328L110.024 55.348C109.707 55.908 109.273 56.3467 108.722 56.664C108.181 56.9813 107.593 57.14 106.958 57.14C106.193 57.14 105.614 56.874 105.222 56.342C104.83 55.81 104.634 55.026 104.634 53.99ZM115.411 57.14C114.813 57.14 114.258 57.042 113.745 56.846C113.231 56.65 112.788 56.3513 112.415 55.95L112.807 55.278C113.217 55.6607 113.628 55.9407 114.039 56.118C114.459 56.286 114.902 56.37 115.369 56.37C115.938 56.37 116.4 56.258 116.755 56.034C117.109 55.8007 117.287 55.4693 117.287 55.04C117.287 54.7507 117.198 54.5313 117.021 54.382C116.853 54.2233 116.605 54.0973 116.279 54.004C115.961 53.9013 115.579 53.794 115.131 53.682C114.627 53.542 114.202 53.3973 113.857 53.248C113.521 53.0893 113.264 52.8933 113.087 52.66C112.919 52.4173 112.835 52.1047 112.835 51.722C112.835 51.246 112.951 50.854 113.185 50.546C113.427 50.2287 113.754 49.9907 114.165 49.832C114.585 49.664 115.051 49.58 115.565 49.58C116.125 49.58 116.619 49.6687 117.049 49.846C117.478 50.0233 117.828 50.2707 118.099 50.588L117.637 51.232C117.375 50.9333 117.063 50.714 116.699 50.574C116.344 50.4247 115.947 50.35 115.509 50.35C115.21 50.35 114.925 50.392 114.655 50.476C114.384 50.5507 114.16 50.6813 113.983 50.868C113.815 51.0453 113.731 51.2927 113.731 51.61C113.731 51.8713 113.796 52.0767 113.927 52.226C114.057 52.366 114.253 52.4873 114.515 52.59C114.776 52.6833 115.098 52.786 115.481 52.898C116.031 53.0473 116.512 53.2013 116.923 53.36C117.333 53.5093 117.651 53.7053 117.875 53.948C118.099 54.1907 118.211 54.5313 118.211 54.97C118.211 55.6513 117.954 56.1833 117.441 56.566C116.927 56.9487 116.251 57.14 115.411 57.14ZM122.948 57.14C122.416 57.14 121.926 57.042 121.478 56.846C121.04 56.6407 120.652 56.3607 120.316 56.006C119.99 55.6513 119.733 55.2453 119.546 54.788C119.369 54.3307 119.28 53.8453 119.28 53.332C119.28 52.6413 119.434 52.0113 119.742 51.442C120.05 50.8727 120.48 50.42 121.03 50.084C121.581 49.748 122.216 49.58 122.934 49.58C123.616 49.58 124.218 49.7387 124.74 50.056C125.263 50.364 125.65 50.784 125.902 51.316L124.978 51.61C124.773 51.2367 124.484 50.9473 124.11 50.742C123.746 50.5273 123.34 50.42 122.892 50.42C122.407 50.42 121.964 50.546 121.562 50.798C121.161 51.05 120.839 51.3953 120.596 51.834C120.363 52.2727 120.246 52.772 120.246 53.332C120.246 53.8827 120.368 54.382 120.61 54.83C120.853 55.278 121.175 55.6373 121.576 55.908C121.978 56.1693 122.421 56.3 122.906 56.3C123.224 56.3 123.527 56.244 123.816 56.132C124.115 56.02 124.372 55.8707 124.586 55.684C124.81 55.488 124.96 55.278 125.034 55.054L125.972 55.334C125.842 55.6793 125.622 55.992 125.314 56.272C125.016 56.5427 124.661 56.7573 124.25 56.916C123.849 57.0653 123.415 57.14 122.948 57.14ZM126.88 54.9C126.88 54.4427 127.011 54.0507 127.272 53.724C127.533 53.388 127.893 53.1313 128.35 52.954C128.817 52.7673 129.353 52.674 129.96 52.674C130.315 52.674 130.683 52.702 131.066 52.758C131.449 52.814 131.789 52.898 132.088 53.01V52.394C132.088 51.778 131.906 51.288 131.542 50.924C131.178 50.56 130.674 50.378 130.03 50.378C129.638 50.378 129.251 50.4527 128.868 50.602C128.495 50.742 128.103 50.952 127.692 51.232L127.328 50.56C127.804 50.2333 128.271 49.9907 128.728 49.832C129.185 49.664 129.652 49.58 130.128 49.58C131.024 49.58 131.733 49.8367 132.256 50.35C132.779 50.8633 133.04 51.5727 133.04 52.478V55.852C133.04 55.9827 133.068 56.0807 133.124 56.146C133.18 56.202 133.269 56.2347 133.39 56.244V57C133.287 57.0093 133.199 57.0187 133.124 57.028C133.049 57.0373 132.993 57.0373 132.956 57.028C132.723 57.0187 132.545 56.944 132.424 56.804C132.303 56.664 132.237 56.5147 132.228 56.356L132.214 55.824C131.887 56.244 131.463 56.5707 130.94 56.804C130.417 57.028 129.885 57.14 129.344 57.14C128.877 57.14 128.453 57.042 128.07 56.846C127.697 56.6407 127.403 56.37 127.188 56.034C126.983 55.6887 126.88 55.3107 126.88 54.9ZM131.766 55.46C131.869 55.3293 131.948 55.2033 132.004 55.082C132.06 54.9607 132.088 54.8533 132.088 54.76V53.696C131.771 53.5747 131.439 53.4813 131.094 53.416C130.758 53.3507 130.417 53.318 130.072 53.318C129.391 53.318 128.84 53.4533 128.42 53.724C128 53.9947 127.79 54.3633 127.79 54.83C127.79 55.1007 127.86 55.3573 128 55.6C128.14 55.8333 128.345 56.0293 128.616 56.188C128.887 56.3373 129.204 56.412 129.568 56.412C130.025 56.412 130.45 56.3233 130.842 56.146C131.243 55.9687 131.551 55.74 131.766 55.46ZM142.389 57.14C141.783 57.14 141.237 56.9813 140.751 56.664C140.275 56.3467 139.897 55.9547 139.617 55.488V59.982H138.665V49.706H139.519V51.12C139.809 50.6627 140.196 50.294 140.681 50.014C141.167 49.7247 141.685 49.58 142.235 49.58C142.739 49.58 143.201 49.6873 143.621 49.902C144.041 50.1073 144.405 50.3873 144.713 50.742C145.021 51.0967 145.259 51.5027 145.427 51.96C145.605 52.408 145.693 52.8747 145.693 53.36C145.693 54.0413 145.553 54.6713 145.273 55.25C145.003 55.8193 144.62 56.2767 144.125 56.622C143.631 56.9673 143.052 57.14 142.389 57.14ZM142.123 56.3C142.525 56.3 142.884 56.2207 143.201 56.062C143.519 55.894 143.789 55.67 144.013 55.39C144.247 55.11 144.424 54.7973 144.545 54.452C144.667 54.0973 144.727 53.7333 144.727 53.36C144.727 52.968 144.657 52.5947 144.517 52.24C144.387 51.8853 144.195 51.5727 143.943 51.302C143.691 51.0313 143.402 50.8167 143.075 50.658C142.749 50.4993 142.394 50.42 142.011 50.42C141.769 50.42 141.517 50.4667 141.255 50.56C140.994 50.6533 140.742 50.7887 140.499 50.966C140.266 51.134 140.07 51.3253 139.911 51.54C139.753 51.7547 139.655 51.9833 139.617 52.226V54.466C139.767 54.8113 139.967 55.124 140.219 55.404C140.471 55.6747 140.761 55.894 141.087 56.062C141.423 56.2207 141.769 56.3 142.123 56.3ZM150.456 57.14C149.933 57.14 149.448 57.042 149 56.846C148.552 56.6407 148.165 56.3653 147.838 56.02C147.511 55.6653 147.255 55.2593 147.068 54.802C146.891 54.3447 146.802 53.8547 146.802 53.332C146.802 52.6507 146.956 52.0253 147.264 51.456C147.581 50.8867 148.015 50.434 148.566 50.098C149.117 49.7527 149.742 49.58 150.442 49.58C151.161 49.58 151.786 49.7527 152.318 50.098C152.859 50.4433 153.284 50.9007 153.592 51.47C153.9 52.03 154.054 52.646 154.054 53.318C154.054 53.3927 154.054 53.4673 154.054 53.542C154.054 53.6073 154.049 53.6587 154.04 53.696H147.796C147.843 54.2187 147.987 54.6853 148.23 55.096C148.482 55.4973 148.804 55.8193 149.196 56.062C149.597 56.2953 150.031 56.412 150.498 56.412C150.974 56.412 151.422 56.2907 151.842 56.048C152.271 55.8053 152.57 55.488 152.738 55.096L153.564 55.32C153.415 55.6653 153.186 55.978 152.878 56.258C152.57 56.538 152.206 56.7573 151.786 56.916C151.375 57.0653 150.932 57.14 150.456 57.14ZM147.768 53.01H153.158C153.121 52.478 152.976 52.0113 152.724 51.61C152.481 51.2087 152.159 50.896 151.758 50.672C151.366 50.4387 150.932 50.322 150.456 50.322C149.98 50.322 149.546 50.4387 149.154 50.672C148.762 50.896 148.44 51.2133 148.188 51.624C147.945 52.0253 147.805 52.4873 147.768 53.01ZM155.565 46.78H156.517V55.348C156.517 55.712 156.582 55.95 156.713 56.062C156.843 56.174 157.002 56.23 157.189 56.23C157.357 56.23 157.525 56.2113 157.693 56.174C157.861 56.1367 158.005 56.0993 158.127 56.062L158.295 56.832C158.117 56.9067 157.898 56.9673 157.637 57.014C157.385 57.0607 157.165 57.084 156.979 57.084C156.549 57.084 156.204 56.958 155.943 56.706C155.691 56.454 155.565 56.1087 155.565 55.67V46.78ZM158.749 54.9C158.749 54.4427 158.88 54.0507 159.141 53.724C159.402 53.388 159.762 53.1313 160.219 52.954C160.686 52.7673 161.222 52.674 161.829 52.674C162.184 52.674 162.552 52.702 162.935 52.758C163.318 52.814 163.658 52.898 163.957 53.01V52.394C163.957 51.778 163.775 51.288 163.411 50.924C163.047 50.56 162.543 50.378 161.899 50.378C161.507 50.378 161.12 50.4527 160.737 50.602C160.364 50.742 159.972 50.952 159.561 51.232L159.197 50.56C159.673 50.2333 160.14 49.9907 160.597 49.832C161.054 49.664 161.521 49.58 161.997 49.58C162.893 49.58 163.602 49.8367 164.125 50.35C164.648 50.8633 164.909 51.5727 164.909 52.478V55.852C164.909 55.9827 164.937 56.0807 164.993 56.146C165.049 56.202 165.138 56.2347 165.259 56.244V57C165.156 57.0093 165.068 57.0187 164.993 57.028C164.918 57.0373 164.862 57.0373 164.825 57.028C164.592 57.0187 164.414 56.944 164.293 56.804C164.172 56.664 164.106 56.5147 164.097 56.356L164.083 55.824C163.756 56.244 163.332 56.5707 162.809 56.804C162.286 57.028 161.754 57.14 161.213 57.14C160.746 57.14 160.322 57.042 159.939 56.846C159.566 56.6407 159.272 56.37 159.057 56.034C158.852 55.6887 158.749 55.3107 158.749 54.9ZM163.635 55.46C163.738 55.3293 163.817 55.2033 163.873 55.082C163.929 54.9607 163.957 54.8533 163.957 54.76V53.696C163.64 53.5747 163.308 53.4813 162.963 53.416C162.627 53.3507 162.286 53.318 161.941 53.318C161.26 53.318 160.709 53.4533 160.289 53.724C159.869 53.9947 159.659 54.3633 159.659 54.83C159.659 55.1007 159.729 55.3573 159.869 55.6C160.009 55.8333 160.214 56.0293 160.485 56.188C160.756 56.3373 161.073 56.412 161.437 56.412C161.894 56.412 162.319 56.3233 162.711 56.146C163.112 55.9687 163.42 55.74 163.635 55.46ZM172.928 57.14C172.331 57.14 171.776 57.042 171.262 56.846C170.749 56.65 170.306 56.3513 169.932 55.95L170.324 55.278C170.735 55.6607 171.146 55.9407 171.556 56.118C171.976 56.286 172.42 56.37 172.886 56.37C173.456 56.37 173.918 56.258 174.272 56.034C174.627 55.8007 174.804 55.4693 174.804 55.04C174.804 54.7507 174.716 54.5313 174.538 54.382C174.37 54.2233 174.123 54.0973 173.796 54.004C173.479 53.9013 173.096 53.794 172.648 53.682C172.144 53.542 171.72 53.3973 171.374 53.248C171.038 53.0893 170.782 52.8933 170.604 52.66C170.436 52.4173 170.352 52.1047 170.352 51.722C170.352 51.246 170.469 50.854 170.702 50.546C170.945 50.2287 171.272 49.9907 171.682 49.832C172.102 49.664 172.569 49.58 173.082 49.58C173.642 49.58 174.137 49.6687 174.566 49.846C174.996 50.0233 175.346 50.2707 175.616 50.588L175.154 51.232C174.893 50.9333 174.58 50.714 174.216 50.574C173.862 50.4247 173.465 50.35 173.026 50.35C172.728 50.35 172.443 50.392 172.172 50.476C171.902 50.5507 171.678 50.6813 171.5 50.868C171.332 51.0453 171.248 51.2927 171.248 51.61C171.248 51.8713 171.314 52.0767 171.444 52.226C171.575 52.366 171.771 52.4873 172.032 52.59C172.294 52.6833 172.616 52.786 172.998 52.898C173.549 53.0473 174.03 53.2013 174.44 53.36C174.851 53.5093 175.168 53.7053 175.392 53.948C175.616 54.1907 175.728 54.5313 175.728 54.97C175.728 55.6513 175.472 56.1833 174.958 56.566C174.445 56.9487 173.768 57.14 172.928 57.14ZM176.714 54.9C176.714 54.4427 176.845 54.0507 177.106 53.724C177.367 53.388 177.727 53.1313 178.184 52.954C178.651 52.7673 179.187 52.674 179.794 52.674C180.149 52.674 180.517 52.702 180.9 52.758C181.283 52.814 181.623 52.898 181.922 53.01V52.394C181.922 51.778 181.74 51.288 181.376 50.924C181.012 50.56 180.508 50.378 179.864 50.378C179.472 50.378 179.085 50.4527 178.702 50.602C178.329 50.742 177.937 50.952 177.526 51.232L177.162 50.56C177.638 50.2333 178.105 49.9907 178.562 49.832C179.019 49.664 179.486 49.58 179.962 49.58C180.858 49.58 181.567 49.8367 182.09 50.35C182.613 50.8633 182.874 51.5727 182.874 52.478V55.852C182.874 55.9827 182.902 56.0807 182.958 56.146C183.014 56.202 183.103 56.2347 183.224 56.244V57C183.121 57.0093 183.033 57.0187 182.958 57.028C182.883 57.0373 182.827 57.0373 182.79 57.028C182.557 57.0187 182.379 56.944 182.258 56.804C182.137 56.664 182.071 56.5147 182.062 56.356L182.048 55.824C181.721 56.244 181.297 56.5707 180.774 56.804C180.251 57.028 179.719 57.14 179.178 57.14C178.711 57.14 178.287 57.042 177.904 56.846C177.531 56.6407 177.237 56.37 177.022 56.034C176.817 55.6887 176.714 55.3107 176.714 54.9ZM181.6 55.46C181.703 55.3293 181.782 55.2033 181.838 55.082C181.894 54.9607 181.922 54.8533 181.922 54.76V53.696C181.605 53.5747 181.273 53.4813 180.928 53.416C180.592 53.3507 180.251 53.318 179.906 53.318C179.225 53.318 178.674 53.4533 178.254 53.724C177.834 53.9947 177.624 54.3633 177.624 54.83C177.624 55.1007 177.694 55.3573 177.834 55.6C177.974 55.8333 178.179 56.0293 178.45 56.188C178.721 56.3373 179.038 56.412 179.402 56.412C179.859 56.412 180.284 56.3233 180.676 56.146C181.077 55.9687 181.385 55.74 181.6 55.46ZM184.861 53.99V49.706H185.813V53.822C185.813 54.6527 185.953 55.2733 186.233 55.684C186.522 56.0947 186.947 56.3 187.507 56.3C187.88 56.3 188.24 56.2207 188.585 56.062C188.94 55.894 189.252 55.6607 189.523 55.362C189.794 55.054 189.999 54.6993 190.139 54.298V49.706H191.091V55.852C191.091 55.9827 191.119 56.0807 191.175 56.146C191.231 56.202 191.315 56.2347 191.427 56.244V57C191.315 57.0093 191.226 57.014 191.161 57.014C191.096 57.0233 191.035 57.028 190.979 57.028C190.792 57.0093 190.629 56.9347 190.489 56.804C190.358 56.6733 190.288 56.5147 190.279 56.328L190.251 55.348C189.934 55.908 189.5 56.3467 188.949 56.664C188.408 56.9813 187.82 57.14 187.185 57.14C186.42 57.14 185.841 56.874 185.449 56.342C185.057 55.81 184.861 55.026 184.861 53.99ZM188.277 48.32L187.647 48.082L188.473 46.78H189.481L188.277 48.32ZM192.753 53.374C192.753 52.6833 192.893 52.0533 193.173 51.484C193.463 50.9053 193.859 50.4433 194.363 50.098C194.867 49.7527 195.441 49.58 196.085 49.58C196.692 49.58 197.233 49.7433 197.709 50.07C198.195 50.3873 198.573 50.7747 198.843 51.232V46.78H199.795V55.852C199.795 55.9827 199.823 56.0807 199.879 56.146C199.935 56.202 200.019 56.2347 200.131 56.244V57C199.945 57.028 199.8 57.0373 199.697 57.028C199.501 57.0187 199.329 56.9393 199.179 56.79C199.03 56.6407 198.955 56.4773 198.955 56.3V55.586C198.666 56.062 198.274 56.44 197.779 56.72C197.285 57 196.771 57.14 196.239 57.14C195.735 57.14 195.269 57.0373 194.839 56.832C194.419 56.6267 194.051 56.3467 193.733 55.992C193.425 55.6373 193.183 55.236 193.005 54.788C192.837 54.3307 192.753 53.8593 192.753 53.374ZM198.843 54.494V52.24C198.722 51.904 198.526 51.6007 198.255 51.33C197.985 51.05 197.677 50.8307 197.331 50.672C196.995 50.504 196.659 50.42 196.323 50.42C195.931 50.42 195.577 50.504 195.259 50.672C194.942 50.8307 194.667 51.05 194.433 51.33C194.209 51.61 194.037 51.9273 193.915 52.282C193.794 52.6367 193.733 53.0007 193.733 53.374C193.733 53.766 193.799 54.1393 193.929 54.494C194.069 54.8487 194.265 55.166 194.517 55.446C194.769 55.7167 195.059 55.9267 195.385 56.076C195.712 56.2253 196.067 56.3 196.449 56.3C196.692 56.3 196.944 56.2533 197.205 56.16C197.467 56.0667 197.714 55.9407 197.947 55.782C198.19 55.614 198.391 55.418 198.549 55.194C198.708 54.97 198.806 54.7367 198.843 54.494ZM205.102 57.14C204.58 57.14 204.094 57.042 203.646 56.846C203.198 56.6407 202.811 56.3653 202.484 56.02C202.158 55.6653 201.901 55.2593 201.714 54.802C201.537 54.3447 201.448 53.8547 201.448 53.332C201.448 52.6507 201.602 52.0253 201.91 51.456C202.228 50.8867 202.662 50.434 203.212 50.098C203.763 49.7527 204.388 49.58 205.088 49.58C205.807 49.58 206.432 49.7527 206.964 50.098C207.506 50.4433 207.93 50.9007 208.238 51.47C208.546 52.03 208.7 52.646 208.7 53.318C208.7 53.3927 208.7 53.4673 208.7 53.542C208.7 53.6073 208.696 53.6587 208.686 53.696H202.442C202.489 54.2187 202.634 54.6853 202.876 55.096C203.128 55.4973 203.45 55.8193 203.842 56.062C204.244 56.2953 204.678 56.412 205.144 56.412C205.62 56.412 206.068 56.2907 206.488 56.048C206.918 55.8053 207.216 55.488 207.384 55.096L208.21 55.32C208.061 55.6653 207.832 55.978 207.524 56.258C207.216 56.538 206.852 56.7573 206.432 56.916C206.022 57.0653 205.578 57.14 205.102 57.14ZM202.414 53.01H207.804C207.767 52.478 207.622 52.0113 207.37 51.61C207.128 51.2087 206.806 50.896 206.404 50.672C206.012 50.4387 205.578 50.322 205.102 50.322C204.626 50.322 204.192 50.4387 203.8 50.672C203.408 50.896 203.086 51.2133 202.834 51.624C202.592 52.0253 202.452 52.4873 202.414 53.01ZM213.738 57V49.706H214.69V57H213.738ZM213.738 48.18V46.78H214.69V48.18H213.738ZM216.296 53.374C216.296 52.6833 216.436 52.0533 216.716 51.484C217.006 50.9053 217.402 50.4433 217.906 50.098C218.41 49.7527 218.984 49.58 219.628 49.58C220.235 49.58 220.776 49.7433 221.252 50.07C221.738 50.3873 222.116 50.7747 222.386 51.232V46.78H223.338V55.852C223.338 55.9827 223.366 56.0807 223.422 56.146C223.478 56.202 223.562 56.2347 223.674 56.244V57C223.488 57.028 223.343 57.0373 223.24 57.028C223.044 57.0187 222.872 56.9393 222.722 56.79C222.573 56.6407 222.498 56.4773 222.498 56.3V55.586C222.209 56.062 221.817 56.44 221.322 56.72C220.828 57 220.314 57.14 219.782 57.14C219.278 57.14 218.812 57.0373 218.382 56.832C217.962 56.6267 217.594 56.3467 217.276 55.992C216.968 55.6373 216.726 55.236 216.548 54.788C216.38 54.3307 216.296 53.8593 216.296 53.374ZM222.386 54.494V52.24C222.265 51.904 222.069 51.6007 221.798 51.33C221.528 51.05 221.22 50.8307 220.874 50.672C220.538 50.504 220.202 50.42 219.866 50.42C219.474 50.42 219.12 50.504 218.802 50.672C218.485 50.8307 218.21 51.05 217.976 51.33C217.752 51.61 217.58 51.9273 217.458 52.282C217.337 52.6367 217.276 53.0007 217.276 53.374C217.276 53.766 217.342 54.1393 217.472 54.494C217.612 54.8487 217.808 55.166 218.06 55.446C218.312 55.7167 218.602 55.9267 218.928 56.076C219.255 56.2253 219.61 56.3 219.992 56.3C220.235 56.3 220.487 56.2533 220.748 56.16C221.01 56.0667 221.257 55.9407 221.49 55.782C221.733 55.614 221.934 55.418 222.092 55.194C222.251 54.97 222.349 54.7367 222.386 54.494ZM228.645 57.14C228.123 57.14 227.637 57.042 227.189 56.846C226.741 56.6407 226.354 56.3653 226.027 56.02C225.701 55.6653 225.444 55.2593 225.257 54.802C225.08 54.3447 224.991 53.8547 224.991 53.332C224.991 52.6507 225.145 52.0253 225.453 51.456C225.771 50.8867 226.205 50.434 226.755 50.098C227.306 49.7527 227.931 49.58 228.631 49.58C229.35 49.58 229.975 49.7527 230.507 50.098C231.049 50.4433 231.473 50.9007 231.781 51.47C232.089 52.03 232.243 52.646 232.243 53.318C232.243 53.3927 232.243 53.4673 232.243 53.542C232.243 53.6073 232.239 53.6587 232.229 53.696H225.985C226.032 54.2187 226.177 54.6853 226.419 55.096C226.671 55.4973 226.993 55.8193 227.385 56.062C227.787 56.2953 228.221 56.412 228.687 56.412C229.163 56.412 229.611 56.2907 230.031 56.048C230.461 55.8053 230.759 55.488 230.927 55.096L231.753 55.32C231.604 55.6653 231.375 55.978 231.067 56.258C230.759 56.538 230.395 56.7573 229.975 56.916C229.565 57.0653 229.121 57.14 228.645 57.14ZM225.957 53.01H231.347C231.31 52.478 231.165 52.0113 230.913 51.61C230.671 51.2087 230.349 50.896 229.947 50.672C229.555 50.4387 229.121 50.322 228.645 50.322C228.169 50.322 227.735 50.4387 227.343 50.672C226.951 50.896 226.629 51.2133 226.377 51.624C226.135 52.0253 225.995 52.4873 225.957 53.01ZM233.124 54.9C233.124 54.4427 233.255 54.0507 233.516 53.724C233.777 53.388 234.137 53.1313 234.594 52.954C235.061 52.7673 235.597 52.674 236.204 52.674C236.559 52.674 236.927 52.702 237.31 52.758C237.693 52.814 238.033 52.898 238.332 53.01V52.394C238.332 51.778 238.15 51.288 237.786 50.924C237.422 50.56 236.918 50.378 236.274 50.378C235.882 50.378 235.495 50.4527 235.112 50.602C234.739 50.742 234.347 50.952 233.936 51.232L233.572 50.56C234.048 50.2333 234.515 49.9907 234.972 49.832C235.429 49.664 235.896 49.58 236.372 49.58C237.268 49.58 237.977 49.8367 238.5 50.35C239.023 50.8633 239.284 51.5727 239.284 52.478V55.852C239.284 55.9827 239.312 56.0807 239.368 56.146C239.424 56.202 239.513 56.2347 239.634 56.244V57C239.531 57.0093 239.443 57.0187 239.368 57.028C239.293 57.0373 239.237 57.0373 239.2 57.028C238.967 57.0187 238.789 56.944 238.668 56.804C238.547 56.664 238.481 56.5147 238.472 56.356L238.458 55.824C238.131 56.244 237.707 56.5707 237.184 56.804C236.661 57.028 236.129 57.14 235.588 57.14C235.121 57.14 234.697 57.042 234.314 56.846C233.941 56.6407 233.647 56.37 233.432 56.034C233.227 55.6887 233.124 55.3107 233.124 54.9ZM238.01 55.46C238.113 55.3293 238.192 55.2033 238.248 55.082C238.304 54.9607 238.332 54.8533 238.332 54.76V53.696C238.015 53.5747 237.683 53.4813 237.338 53.416C237.002 53.3507 236.661 53.318 236.316 53.318C235.635 53.318 235.084 53.4533 234.664 53.724C234.244 53.9947 234.034 54.3633 234.034 54.83C234.034 55.1007 234.104 55.3573 234.244 55.6C234.384 55.8333 234.589 56.0293 234.86 56.188C235.131 56.3373 235.448 56.412 235.812 56.412C236.269 56.412 236.694 56.3233 237.086 56.146C237.487 55.9687 237.795 55.74 238.01 55.46ZM241.383 46.78H242.335V55.348C242.335 55.712 242.4 55.95 242.531 56.062C242.662 56.174 242.82 56.23 243.007 56.23C243.175 56.23 243.343 56.2113 243.511 56.174C243.679 56.1367 243.824 56.0993 243.945 56.062L244.113 56.832C243.936 56.9067 243.716 56.9673 243.455 57.014C243.203 57.0607 242.984 57.084 242.797 57.084C242.368 57.084 242.022 56.958 241.761 56.706C241.509 56.454 241.383 56.1087 241.383 55.67V46.78ZM251.464 57.14C250.932 57.14 250.442 57.042 249.994 56.846C249.555 56.6407 249.168 56.3607 248.832 56.006C248.505 55.6513 248.249 55.2453 248.062 54.788C247.885 54.3307 247.796 53.8453 247.796 53.332C247.796 52.6413 247.95 52.0113 248.258 51.442C248.566 50.8727 248.995 50.42 249.546 50.084C250.097 49.748 250.731 49.58 251.45 49.58C252.131 49.58 252.733 49.7387 253.256 50.056C253.779 50.364 254.166 50.784 254.418 51.316L253.494 51.61C253.289 51.2367 252.999 50.9473 252.626 50.742C252.262 50.5273 251.856 50.42 251.408 50.42C250.923 50.42 250.479 50.546 250.078 50.798C249.677 51.05 249.355 51.3953 249.112 51.834C248.879 52.2727 248.762 52.772 248.762 53.332C248.762 53.8827 248.883 54.382 249.126 54.83C249.369 55.278 249.691 55.6373 250.092 55.908C250.493 56.1693 250.937 56.3 251.422 56.3C251.739 56.3 252.043 56.244 252.332 56.132C252.631 56.02 252.887 55.8707 253.102 55.684C253.326 55.488 253.475 55.278 253.55 55.054L254.488 55.334C254.357 55.6793 254.138 55.992 253.83 56.272C253.531 56.5427 253.177 56.7573 252.766 56.916C252.365 57.0653 251.931 57.14 251.464 57.14ZM259.023 57.14C258.501 57.14 258.015 57.042 257.567 56.846C257.129 56.6407 256.746 56.3653 256.419 56.02C256.102 55.6653 255.855 55.264 255.677 54.816C255.5 54.3587 255.411 53.878 255.411 53.374C255.411 52.8513 255.5 52.366 255.677 51.918C255.855 51.4607 256.107 51.0593 256.433 50.714C256.76 50.3593 257.143 50.084 257.581 49.888C258.029 49.6827 258.515 49.58 259.037 49.58C259.56 49.58 260.041 49.6827 260.479 49.888C260.918 50.084 261.301 50.3593 261.627 50.714C261.954 51.0593 262.206 51.4607 262.383 51.918C262.561 52.366 262.649 52.8513 262.649 53.374C262.649 53.878 262.561 54.3587 262.383 54.816C262.206 55.264 261.954 55.6653 261.627 56.02C261.31 56.3653 260.927 56.6407 260.479 56.846C260.041 57.042 259.555 57.14 259.023 57.14ZM256.377 53.388C256.377 53.9293 256.494 54.424 256.727 54.872C256.97 55.3107 257.292 55.6607 257.693 55.922C258.095 56.174 258.538 56.3 259.023 56.3C259.509 56.3 259.952 56.1693 260.353 55.908C260.755 55.6467 261.077 55.292 261.319 54.844C261.562 54.3867 261.683 53.892 261.683 53.36C261.683 52.8187 261.562 52.324 261.319 51.876C261.077 51.428 260.755 51.0733 260.353 50.812C259.952 50.5507 259.509 50.42 259.023 50.42C258.538 50.42 258.095 50.5553 257.693 50.826C257.301 51.0967 256.984 51.456 256.741 51.904C256.499 52.3427 256.377 52.8373 256.377 53.388ZM275.091 57H274.139V52.926C274.139 52.0767 274.004 51.4513 273.733 51.05C273.463 50.6487 273.061 50.448 272.529 50.448C271.979 50.448 271.484 50.644 271.045 51.036C270.616 51.428 270.313 51.932 270.135 52.548V57H269.183V52.926C269.183 52.0673 269.053 51.442 268.791 51.05C268.53 50.6487 268.129 50.448 267.587 50.448C267.046 50.448 266.556 50.6393 266.117 51.022C265.679 51.4047 265.371 51.9087 265.193 52.534V57H264.241V49.706H265.109V51.358C265.417 50.7887 265.809 50.35 266.285 50.042C266.771 49.734 267.307 49.58 267.895 49.58C268.502 49.58 268.992 49.7527 269.365 50.098C269.739 50.4433 269.967 50.896 270.051 51.456C270.387 50.84 270.789 50.3733 271.255 50.056C271.731 49.7387 272.268 49.58 272.865 49.58C273.276 49.58 273.621 49.6547 273.901 49.804C274.191 49.9533 274.419 50.168 274.587 50.448C274.765 50.7187 274.891 51.05 274.965 51.442C275.049 51.8247 275.091 52.254 275.091 52.73V57ZM280.257 57.14C279.734 57.14 279.249 57.042 278.801 56.846C278.353 56.6407 277.965 56.3653 277.639 56.02C277.312 55.6653 277.055 55.2593 276.869 54.802C276.691 54.3447 276.603 53.8547 276.603 53.332C276.603 52.6507 276.757 52.0253 277.065 51.456C277.382 50.8867 277.816 50.434 278.367 50.098C278.917 49.7527 279.543 49.58 280.243 49.58C280.961 49.58 281.587 49.7527 282.119 50.098C282.66 50.4433 283.085 50.9007 283.393 51.47C283.701 52.03 283.855 52.646 283.855 53.318C283.855 53.3927 283.855 53.4673 283.855 53.542C283.855 53.6073 283.85 53.6587 283.841 53.696H277.597C277.643 54.2187 277.788 54.6853 278.031 55.096C278.283 55.4973 278.605 55.8193 278.997 56.062C279.398 56.2953 279.832 56.412 280.299 56.412C280.775 56.412 281.223 56.2907 281.643 56.048C282.072 55.8053 282.371 55.488 282.539 55.096L283.365 55.32C283.215 55.6653 282.987 55.978 282.679 56.258C282.371 56.538 282.007 56.7573 281.587 56.916C281.176 57.0653 280.733 57.14 280.257 57.14ZM277.569 53.01H282.959C282.921 52.478 282.777 52.0113 282.525 51.61C282.282 51.2087 281.96 50.896 281.559 50.672C281.167 50.4387 280.733 50.322 280.257 50.322C279.781 50.322 279.347 50.4387 278.955 50.672C278.563 50.896 278.241 51.2133 277.989 51.624C277.746 52.0253 277.606 52.4873 277.569 53.01ZM288.487 57.14C287.955 57.14 287.465 57.042 287.017 56.846C286.579 56.6407 286.191 56.3607 285.855 56.006C285.529 55.6513 285.272 55.2453 285.085 54.788C284.908 54.3307 284.819 53.8453 284.819 53.332C284.819 52.6413 284.973 52.0113 285.281 51.442C285.589 50.8727 286.019 50.42 286.569 50.084C287.12 49.748 287.755 49.58 288.473 49.58C289.155 49.58 289.757 49.7387 290.279 50.056C290.802 50.364 291.189 50.784 291.441 51.316L290.517 51.61C290.312 51.2367 290.023 50.9473 289.649 50.742C289.285 50.5273 288.879 50.42 288.431 50.42C287.946 50.42 287.503 50.546 287.101 50.798C286.7 51.05 286.378 51.3953 286.135 51.834C285.902 52.2727 285.785 52.772 285.785 53.332C285.785 53.8827 285.907 54.382 286.149 54.83C286.392 55.278 286.714 55.6373 287.115 55.908C287.517 56.1693 287.96 56.3 288.445 56.3C288.763 56.3 289.066 56.244 289.355 56.132C289.654 56.02 289.911 55.8707 290.125 55.684C290.349 55.488 290.499 55.278 290.573 55.054L291.511 55.334C291.381 55.6793 291.161 55.992 290.853 56.272C290.555 56.5427 290.2 56.7573 289.789 56.916C289.388 57.0653 288.954 57.14 288.487 57.14ZM288.319 59.52C288.086 59.52 287.825 59.4873 287.535 59.422C287.255 59.3567 286.985 59.2587 286.723 59.128L287.003 58.582C287.199 58.6753 287.386 58.75 287.563 58.806C287.741 58.862 287.941 58.89 288.165 58.89C288.473 58.89 288.711 58.8293 288.879 58.708C289.047 58.596 289.131 58.4187 289.131 58.176C289.131 57.9333 289.047 57.7187 288.879 57.532C288.711 57.3547 288.469 57.1773 288.151 57L288.557 56.734C288.921 56.958 289.215 57.1867 289.439 57.42C289.663 57.6627 289.775 57.966 289.775 58.33C289.775 58.7033 289.645 58.9927 289.383 59.198C289.122 59.4127 288.767 59.52 288.319 59.52ZM292.419 54.9C292.419 54.4427 292.55 54.0507 292.811 53.724C293.072 53.388 293.432 53.1313 293.889 52.954C294.356 52.7673 294.892 52.674 295.499 52.674C295.854 52.674 296.222 52.702 296.605 52.758C296.988 52.814 297.328 52.898 297.627 53.01V52.394C297.627 51.778 297.445 51.288 297.081 50.924C296.717 50.56 296.213 50.378 295.569 50.378C295.177 50.378 294.79 50.4527 294.407 50.602C294.034 50.742 293.642 50.952 293.231 51.232L292.867 50.56C293.343 50.2333 293.81 49.9907 294.267 49.832C294.724 49.664 295.191 49.58 295.667 49.58C296.563 49.58 297.272 49.8367 297.795 50.35C298.318 50.8633 298.579 51.5727 298.579 52.478V55.852C298.579 55.9827 298.607 56.0807 298.663 56.146C298.719 56.202 298.808 56.2347 298.929 56.244V57C298.826 57.0093 298.738 57.0187 298.663 57.028C298.588 57.0373 298.532 57.0373 298.495 57.028C298.262 57.0187 298.084 56.944 297.963 56.804C297.842 56.664 297.776 56.5147 297.767 56.356L297.753 55.824C297.426 56.244 297.002 56.5707 296.479 56.804C295.956 57.028 295.424 57.14 294.883 57.14C294.416 57.14 293.992 57.042 293.609 56.846C293.236 56.6407 292.942 56.37 292.727 56.034C292.522 55.6887 292.419 55.3107 292.419 54.9ZM297.305 55.46C297.408 55.3293 297.487 55.2033 297.543 55.082C297.599 54.9607 297.627 54.8533 297.627 54.76V53.696C297.31 53.5747 296.978 53.4813 296.633 53.416C296.297 53.3507 295.956 53.318 295.611 53.318C294.93 53.318 294.379 53.4533 293.959 53.724C293.539 53.9947 293.329 54.3633 293.329 54.83C293.329 55.1007 293.399 55.3573 293.539 55.6C293.679 55.8333 293.884 56.0293 294.155 56.188C294.426 56.3373 294.743 56.412 295.107 56.412C295.564 56.412 295.989 56.3233 296.381 56.146C296.782 55.9687 297.09 55.74 297.305 55.46ZM303.616 54.9C303.616 54.4427 303.747 54.0507 304.008 53.724C304.27 53.388 304.629 53.1313 305.086 52.954C305.553 52.7673 306.09 52.674 306.696 52.674C307.051 52.674 307.42 52.702 307.802 52.758C308.185 52.814 308.526 52.898 308.824 53.01V52.394C308.824 51.778 308.642 51.288 308.278 50.924C307.914 50.56 307.41 50.378 306.766 50.378C306.374 50.378 305.987 50.4527 305.604 50.602C305.231 50.742 304.839 50.952 304.428 51.232L304.064 50.56C304.54 50.2333 305.007 49.9907 305.464 49.832C305.922 49.664 306.388 49.58 306.864 49.58C307.76 49.58 308.47 49.8367 308.992 50.35C309.515 50.8633 309.776 51.5727 309.776 52.478V55.852C309.776 55.9827 309.804 56.0807 309.86 56.146C309.916 56.202 310.005 56.2347 310.126 56.244V57C310.024 57.0093 309.935 57.0187 309.86 57.028C309.786 57.0373 309.73 57.0373 309.692 57.028C309.459 57.0187 309.282 56.944 309.16 56.804C309.039 56.664 308.974 56.5147 308.964 56.356L308.95 55.824C308.624 56.244 308.199 56.5707 307.676 56.804C307.154 57.028 306.622 57.14 306.08 57.14C305.614 57.14 305.189 57.042 304.806 56.846C304.433 56.6407 304.139 56.37 303.924 56.034C303.719 55.6887 303.616 55.3107 303.616 54.9ZM308.502 55.46C308.605 55.3293 308.684 55.2033 308.74 55.082C308.796 54.9607 308.824 54.8533 308.824 54.76V53.696C308.507 53.5747 308.176 53.4813 307.83 53.416C307.494 53.3507 307.154 53.318 306.808 53.318C306.127 53.318 305.576 53.4533 305.156 53.724C304.736 53.9947 304.526 54.3633 304.526 54.83C304.526 55.1007 304.596 55.3573 304.736 55.6C304.876 55.8333 305.082 56.0293 305.352 56.188C305.623 56.3373 305.94 56.412 306.304 56.412C306.762 56.412 307.186 56.3233 307.578 56.146C307.98 55.9687 308.288 55.74 308.502 55.46ZM314.647 57.14C314.153 57.14 313.7 57.0373 313.289 56.832C312.888 56.6267 312.543 56.3467 312.253 55.992C311.964 55.6373 311.74 55.236 311.581 54.788C311.423 54.3307 311.343 53.8547 311.343 53.36C311.343 52.8467 311.432 52.366 311.609 51.918C311.787 51.4607 312.029 51.0593 312.337 50.714C312.655 50.3593 313.023 50.084 313.443 49.888C313.873 49.6827 314.33 49.58 314.815 49.58C315.385 49.58 315.907 49.7293 316.383 50.028C316.869 50.3173 317.247 50.686 317.517 51.134V49.706H318.371V59.982H317.419V55.488C316.701 56.5893 315.777 57.14 314.647 57.14ZM314.941 56.3C315.324 56.3 315.669 56.2253 315.977 56.076C316.295 55.9173 316.57 55.7073 316.803 55.446C317.046 55.1847 317.251 54.8953 317.419 54.578V52.324C317.391 52.072 317.298 51.834 317.139 51.61C316.981 51.3767 316.785 51.1713 316.551 50.994C316.318 50.8073 316.066 50.6673 315.795 50.574C315.525 50.4713 315.259 50.42 314.997 50.42C314.596 50.42 314.232 50.504 313.905 50.672C313.588 50.84 313.308 51.064 313.065 51.344C312.823 51.624 312.636 51.9413 312.505 52.296C312.375 52.6507 312.309 53.01 312.309 53.374C312.309 53.8967 312.421 54.382 312.645 54.83C312.879 55.278 313.191 55.6373 313.583 55.908C313.975 56.1693 314.428 56.3 314.941 56.3ZM320.404 53.99V49.706H321.356V53.822C321.356 54.6527 321.496 55.2733 321.776 55.684C322.065 56.0947 322.49 56.3 323.05 56.3C323.423 56.3 323.782 56.2207 324.128 56.062C324.482 55.894 324.795 55.6607 325.066 55.362C325.336 55.054 325.542 54.6993 325.682 54.298V49.706H326.634V55.852C326.634 55.9827 326.662 56.0807 326.718 56.146C326.774 56.202 326.858 56.2347 326.97 56.244V57C326.858 57.0093 326.769 57.014 326.704 57.014C326.638 57.0233 326.578 57.028 326.522 57.028C326.335 57.0093 326.172 56.9347 326.032 56.804C325.901 56.6733 325.831 56.5147 325.822 56.328L325.794 55.348C325.476 55.908 325.042 56.3467 324.492 56.664C323.95 56.9813 323.362 57.14 322.728 57.14C321.962 57.14 321.384 56.874 320.992 56.342C320.6 55.81 320.404 55.026 320.404 53.99ZM328.786 57V49.706H329.738V57H328.786ZM328.786 48.18V46.78H329.738V48.18H328.786ZM331.695 57V55.628H332.521V57H331.695Z" fill="#757575"/>
<path d="M232.253 21.7216C232.877 20.9033 233.728 20.2142 234.805 19.6543C235.881 19.0944 237.098 18.8145 238.455 18.8145C240.005 18.8145 241.416 19.2021 242.686 19.9773C243.978 20.731 244.99 21.797 245.723 23.1752C246.455 24.5533 246.821 26.1361 246.821 27.9235C246.821 29.7108 246.455 31.3151 245.723 32.7364C244.99 34.1361 243.978 35.2344 242.686 36.0311C241.416 36.8064 240.005 37.194 238.455 37.194C237.098 37.194 235.892 36.9248 234.837 36.3865C233.782 35.8266 232.92 35.1375 232.253 34.3192V45.3663H228.57V19.1052H232.253V21.7216ZM243.074 27.9235C243.074 26.696 242.815 25.6408 242.299 24.7579C241.803 23.8535 241.136 23.1752 240.296 22.7229C239.478 22.2492 238.595 22.0123 237.647 22.0123C236.721 22.0123 235.838 22.2492 234.998 22.7229C234.18 23.1967 233.513 23.8858 232.996 24.7902C232.5 25.6947 232.253 26.7606 232.253 27.9881C232.253 29.2155 232.5 30.2922 232.996 31.2182C233.513 32.1227 234.18 32.8118 234.998 33.2855C235.838 33.7593 236.721 33.9961 237.647 33.9961C238.595 33.9961 239.478 33.7593 240.296 33.2855C241.136 32.7902 241.803 32.0796 242.299 31.1536C242.815 30.2276 243.074 29.1509 243.074 27.9235Z" fill="#008FFF"/>
<path d="M205.451 27.9235C205.451 26.1361 205.817 24.5533 206.549 23.1752C207.303 21.797 208.315 20.731 209.586 19.9773C210.878 19.2021 212.299 18.8145 213.85 18.8145C215.249 18.8145 216.466 19.0944 217.5 19.6543C218.555 20.1926 219.395 20.871 220.019 21.6893V19.1052H223.734V36.9033H220.019V34.2546C219.395 35.0944 218.544 35.7943 217.467 36.3542C216.391 36.914 215.163 37.194 213.785 37.194C212.256 37.194 210.856 36.8064 209.586 36.0311C208.315 35.2344 207.303 34.1361 206.549 32.7364C205.817 31.3151 205.451 29.7108 205.451 27.9235ZM220.019 27.9881C220.019 26.7606 219.761 25.6947 219.244 24.7902C218.749 23.8858 218.092 23.1967 217.274 22.7229C216.455 22.2492 215.572 22.0123 214.625 22.0123C213.677 22.0123 212.794 22.2492 211.976 22.7229C211.158 23.1752 210.49 23.8535 209.973 24.7579C209.478 25.6408 209.23 26.696 209.23 27.9235C209.23 29.1509 209.478 30.2276 209.973 31.1536C210.49 32.0796 211.158 32.7902 211.976 33.2855C212.816 33.7593 213.699 33.9961 214.625 33.9961C215.572 33.9961 216.455 33.7593 217.274 33.2855C218.092 32.8118 218.749 32.1227 219.244 31.2182C219.761 30.2922 220.019 29.2155 220.019 27.9881Z" fill="#008FFF"/>
<path d="M194.661 18.8145C196.06 18.8145 197.309 19.1052 198.408 19.6866C199.527 20.268 200.399 21.1294 201.024 22.2707C201.67 23.412 201.993 24.7902 201.993 26.4053V36.9033H198.343V26.9544C198.343 25.3609 197.945 24.1442 197.148 23.3044C196.351 22.443 195.264 22.0123 193.885 22.0123C192.507 22.0123 191.409 22.443 190.591 23.3044C189.794 24.1442 189.395 25.3609 189.395 26.9544V36.9033H185.745V26.9544C185.745 25.3609 185.347 24.1442 184.55 23.3044C183.753 22.443 182.666 22.0123 181.288 22.0123C179.91 22.0123 178.811 22.443 177.993 23.3044C177.196 24.1442 176.798 25.3609 176.798 26.9544V36.9033H173.115V19.1052H176.798V21.1402C177.401 20.408 178.165 19.8373 179.091 19.4282C180.017 19.019 181.008 18.8145 182.063 18.8145C183.484 18.8145 184.755 19.1159 185.875 19.7189C186.994 20.3219 187.856 21.194 188.459 22.3353C188.997 21.2586 189.837 20.408 190.978 19.7835C192.12 19.1375 193.347 18.8145 194.661 18.8145Z" fill="#008FFF"/>
<path d="M161.344 18.8143C162.701 18.8143 163.907 19.105 164.962 19.6864C166.039 20.2678 166.879 21.1292 167.482 22.2705C168.106 23.4118 168.418 24.79 168.418 26.4051V36.9031H164.768V26.9542C164.768 25.3607 164.37 24.144 163.573 23.3042C162.776 22.4428 161.689 22.0121 160.311 22.0121C158.933 22.0121 157.834 22.4428 157.016 23.3042C156.219 24.144 155.821 25.3607 155.821 26.9542V36.9031H152.138V13H155.821V21.1723C156.445 20.4186 157.231 19.8371 158.179 19.428C159.148 19.0188 160.203 18.8143 161.344 18.8143Z" fill="#008FFF"/>
<path d="M144.416 22.109V31.961C144.416 32.6285 144.567 33.1131 144.868 33.4145C145.191 33.6945 145.73 33.8345 146.483 33.8345H148.744V36.9031H145.837C144.179 36.9031 142.909 36.5155 142.026 35.7402C141.143 34.965 140.701 33.7053 140.701 31.961V22.109H138.602V19.105H140.701V14.6797H144.416V19.105H148.744V22.109H144.416Z" fill="#008FFF"/>
<path d="M135.285 13V36.9031H131.603V13H135.285Z" fill="#008FFF"/>
<path d="M108.484 27.9235C108.484 26.1361 108.85 24.5533 109.582 23.1752C110.336 21.797 111.348 20.731 112.618 19.9773C113.91 19.2021 115.332 18.8145 116.882 18.8145C118.282 18.8145 119.498 19.0944 120.532 19.6543C121.587 20.1926 122.427 20.871 123.052 21.6893V19.1052H126.766V36.9033H123.052V34.2546C122.427 35.0944 121.577 35.7943 120.5 36.3542C119.423 36.914 118.196 37.194 116.817 37.194C115.288 37.194 113.889 36.8064 112.618 36.0311C111.348 35.2344 110.336 34.1361 109.582 32.7364C108.85 31.3151 108.484 29.7108 108.484 27.9235ZM123.052 27.9881C123.052 26.7606 122.793 25.6947 122.276 24.7902C121.781 23.8858 121.124 23.1967 120.306 22.7229C119.488 22.2492 118.605 22.0123 117.657 22.0123C116.71 22.0123 115.827 22.2492 115.009 22.7229C114.19 23.1752 113.523 23.8535 113.006 24.7579C112.511 25.6408 112.263 26.696 112.263 27.9235C112.263 29.1509 112.511 30.2276 113.006 31.1536C113.523 32.0796 114.19 32.7902 115.009 33.2855C115.848 33.7593 116.731 33.9961 117.657 33.9961C118.605 33.9961 119.488 33.7593 120.306 33.2855C121.124 32.8118 121.781 32.1227 122.276 31.2182C122.793 30.2922 123.052 29.2155 123.052 27.9881Z" fill="#008FFF"/>
<path d="M106.087 27.5682C106.087 28.2357 106.044 28.8387 105.958 29.377H92.3592C92.4669 30.7983 92.9944 31.9396 93.942 32.801C94.8895 33.6624 96.0523 34.0931 97.4305 34.0931C99.4117 34.0931 100.811 33.264 101.63 31.6058H105.603C105.064 33.2424 104.085 34.5883 102.663 35.6435C101.264 36.6772 99.5193 37.194 97.4305 37.194C95.7293 37.194 94.2004 36.8171 92.8437 36.0634C91.5086 35.2882 90.4534 34.2115 89.6782 32.8333C88.9245 31.4336 88.5476 29.8185 88.5476 27.9881C88.5476 26.1577 88.9137 24.5533 89.6459 23.1752C90.3996 21.7754 91.444 20.6987 92.7791 19.945C94.1358 19.1913 95.6862 18.8145 97.4305 18.8145C99.1102 18.8145 100.607 19.1805 101.92 19.9127C103.234 20.6449 104.257 21.6785 104.989 23.0136C105.721 24.3272 106.087 25.8454 106.087 27.5682ZM102.243 26.4053C102.222 25.0486 101.737 23.9612 100.79 23.1429C99.8424 22.3245 98.6687 21.9154 97.269 21.9154C95.9985 21.9154 94.911 22.3245 94.0066 23.1429C93.1021 23.9396 92.5638 25.0271 92.3915 26.4053H102.243Z" fill="#008FFF"/>
<path d="M84.9273 14.4536V36.9031H81.245V27.0835H70.6824V36.9031H67V14.4536H70.6824V24.0795H81.245V14.4536H84.9273Z" fill="#008FFF"/>
<path d="M19.2023 10.0131V24.4623H33.5882V10.0131H43.1576V24.4623H53.2974V3.80243C53.2974 1.70241 51.595 0 49.495 0H6.33739C2.83734 0 0 2.83735 0 6.33739V10.0131V24.4623H9.75958V10.0131H19.2023Z" fill="#008FFF"/>
<path d="M34.0951 46.9869L34.0951 32.5377L19.7092 32.5377L19.7092 46.9869L10.1398 46.9869L10.1398 32.5377L-5.88966e-05 32.5377L-6.07027e-05 53.1976C-6.08863e-05 55.2976 1.70235 57 3.80238 57L46.96 57C50.46 57 53.2974 54.1627 53.2974 50.6626L53.2974 46.9869L53.2974 32.5377L43.5378 32.5377L43.5378 46.9869L34.0951 46.9869Z" fill="#0056B3"/>
</svg>
