<svg width="40" height="40" viewBox="0 0 25 25" fill="none" xmlns="http://www.w3.org/2000/svg">
<g clip-path="url(#clip0_1_28)">
<path d="M8.36062 0.789375C5.96265 1.62125 3.89464 3.20019 2.46036 5.29425C1.02607 7.38832 0.301106 9.88715 0.391952 12.4237C0.482797 14.9602 1.38466 17.4008 2.96508 19.3869C4.5455 21.373 6.72116 22.7999 9.1725 23.4581C11.1599 23.9709 13.242 23.9935 15.24 23.5238C17.05 23.1172 18.7233 22.2476 20.0962 21C21.5251 19.6619 22.5623 17.9596 23.0962 16.0763C23.6766 14.0281 23.7799 11.8742 23.3981 9.78H12.2381V14.4094H18.7012C18.5721 15.1477 18.2953 15.8524 17.8874 16.4813C17.4795 17.1102 16.949 17.6503 16.3275 18.0694C15.5383 18.5914 14.6486 18.9427 13.7156 19.1006C12.7799 19.2746 11.8201 19.2746 10.8844 19.1006C9.93598 18.9045 9.03881 18.5131 8.25 17.9513C6.98278 17.0542 6.03127 15.7799 5.53125 14.31C5.02277 12.8126 5.02277 11.1893 5.53125 9.69188C5.88717 8.64228 6.47556 7.68663 7.2525 6.89625C8.14161 5.97515 9.26725 5.31674 10.5059 4.99327C11.7446 4.66979 13.0484 4.69375 14.2744 5.0625C15.2321 5.35648 16.1078 5.87013 16.8319 6.5625C17.5606 5.8375 18.2881 5.11063 19.0144 4.38188C19.3894 3.99 19.7981 3.61688 20.1675 3.21563C19.0623 2.18714 17.765 1.38686 16.35 0.860625C13.7732 -0.0750188 10.9537 -0.100163 8.36062 0.789375Z" fill="white"/>
<path d="M8.36063 0.789375C10.9535 -0.100768 13.773 -0.0762858 16.35 0.85875C17.7653 1.38856 19.062 2.1927 20.1656 3.225C19.7906 3.62625 19.395 4.00125 19.0125 4.39125C18.285 5.1175 17.5581 5.84125 16.8319 6.5625C16.1078 5.87013 15.2321 5.35648 14.2744 5.0625C13.0488 4.69245 11.745 4.66711 10.506 4.98927C9.26704 5.31142 8.14071 5.96862 7.25063 6.88875C6.47369 7.67913 5.8853 8.63478 5.52938 9.68438L1.6425 6.675C3.03377 3.91605 5.44266 1.80567 8.36063 0.789375Z" fill="#E33629"/>
<path d="M0.611248 9.65625C0.820163 8.62086 1.16701 7.61817 1.6425 6.675L5.52937 9.69187C5.0209 11.1893 5.0209 12.8126 5.52937 14.31C4.23437 15.31 2.93875 16.315 1.6425 17.325C0.452156 14.9556 0.0891221 12.2559 0.611248 9.65625Z" fill="#F8BD00"/>
<path d="M12.2381 9.77813H23.3981C23.7799 11.8724 23.6766 14.0263 23.0962 16.0744C22.5623 17.9578 21.5251 19.66 20.0962 20.9981C18.8419 20.0194 17.5819 19.0481 16.3275 18.0694C16.9494 17.6499 17.4802 17.1092 17.8881 16.4796C18.296 15.8501 18.5726 15.1446 18.7012 14.4056H12.2381C12.2362 12.8644 12.2381 11.3213 12.2381 9.77813Z" fill="#587DBD"/>
<path d="M1.64062 17.325C2.93687 16.325 4.2325 15.32 5.5275 14.31C6.02851 15.7804 6.98138 17.0548 8.25 17.9513C9.04127 18.5105 9.94037 18.8987 10.89 19.0913C11.8257 19.2652 12.7855 19.2652 13.7213 19.0913C14.6542 18.9333 15.5439 18.5821 16.3331 18.06C17.5875 19.0388 18.8475 20.01 20.1019 20.9888C18.7292 22.237 17.0558 23.1073 15.2456 23.5144C13.2476 23.9841 11.1655 23.9616 9.17813 23.4488C7.60632 23.0291 6.13814 22.2892 4.86563 21.2756C3.51874 20.2063 2.41867 18.8587 1.64062 17.325Z" fill="#319F43"/>
</g>
<defs>
<clipPath id="clip0_1_28">
<rect width="40" height="40" fill="white"/>
</clipPath>
</defs>
</svg>
