<svg width="291" height="65" viewBox="0 0 291 65" fill="none" xmlns="http://www.w3.org/2000/svg">
<path d="M21.8979 11.3803V27.8024H38.3031V11.3803H49.216V27.8024H60.7792V4.32162C60.7792 1.93486 58.8378 0 56.4429 0H7.22702C3.23565 0 0 3.22477 0 7.20272V11.3803V27.8024H11.1296V11.3803H21.8979Z" fill="#008FFF"/>
<path d="M38.8815 53.4027V36.9803H22.476V53.4027H11.5632V36.9803H2.05969e-06L0 60.4613C-2.09365e-07 62.8481 1.94139 64.783 4.33622 64.783H53.5523C57.5436 64.783 60.7792 61.5583 60.7792 57.5804V53.4027V36.9803H49.6496V53.4027H38.8815Z" fill="#0056B3"/>
<path d="M75.8103 57.2862C75.7739 56.8521 75.5962 56.5012 75.277 56.233C74.96 55.965 74.5496 55.8309 74.0458 55.8309C73.7062 55.8309 73.4041 55.8934 73.1397 56.0184C72.8752 56.1432 72.6676 56.3137 72.5173 56.5296C72.3667 56.7455 72.2915 56.9931 72.2915 57.2724C72.2915 57.452 72.3258 57.6145 72.3941 57.7599C72.4648 57.9031 72.564 58.0315 72.6917 58.145C72.8194 58.2565 72.9708 58.354 73.1463 58.438C73.322 58.5223 73.5158 58.5961 73.7277 58.6597L74.4938 58.8848C74.756 58.9641 74.9976 59.0561 75.2187 59.1607C75.4422 59.2651 75.6359 59.3902 75.8001 59.5356C75.9665 59.6788 76.0953 59.8468 76.1864 60.0399C76.2801 60.2332 76.3268 60.4558 76.3268 60.7081C76.3268 61.076 76.2309 61.4054 76.0394 61.6963C75.8501 61.9871 75.5801 62.2168 75.2289 62.3848C74.8801 62.5507 74.4686 62.6336 73.9944 62.6336C73.5431 62.6336 73.1499 62.5575 72.8147 62.4052C72.4819 62.2532 72.2186 62.0417 72.0248 61.7715C71.8308 61.4988 71.7214 61.1851 71.6965 60.8306H72.1343C72.1569 61.1193 72.2492 61.3691 72.4112 61.5806C72.5753 61.7897 72.7931 61.9508 73.0645 62.0645C73.3356 62.178 73.6457 62.235 73.9944 62.235C74.3708 62.235 74.7024 62.1714 74.9896 62.0441C75.277 61.9144 75.5014 61.7351 75.6633 61.5054C75.8253 61.276 75.9062 61.0091 75.9062 60.7045C75.9062 60.4594 75.8479 60.2489 75.7318 60.074C75.6155 59.8991 75.4433 59.7479 75.2153 59.6207C74.9896 59.4934 74.7093 59.38 74.3741 59.28L73.5567 59.0346C73.0098 58.8688 72.5914 58.6427 72.3017 58.3565C72.0146 58.0701 71.8709 57.7134 71.8709 57.2862C71.8709 56.9273 71.9665 56.6092 72.158 56.3319C72.3496 56.0523 72.6096 55.8331 72.9379 55.6741C73.2684 55.5149 73.6412 55.4356 74.056 55.4356C74.4733 55.4356 74.8414 55.5163 75.1606 55.6774C75.4798 55.8366 75.733 56.0559 75.9198 56.3354C76.1069 56.6125 76.2105 56.9295 76.2309 57.2862H75.8103ZM81.234 60.6637V57.2862H81.6513V62.5212H81.234V61.6726H81.1998C81.0768 61.9428 80.8773 62.1634 80.6015 62.3336C80.3279 62.5041 80.004 62.5892 79.6301 62.5892C79.286 62.5892 78.9815 62.5143 78.717 62.3645C78.4525 62.2144 78.2453 62.002 78.0947 61.7271C77.9443 61.4498 77.8689 61.1204 77.8689 60.7386V57.2862H78.2862V60.7216C78.2862 61.1578 78.4186 61.5112 78.683 61.7817C78.9497 62.0497 79.2938 62.1838 79.7158 62.1838C79.9893 62.1838 80.2411 62.1224 80.4713 61.9998C80.7018 61.877 80.8864 61.7021 81.0254 61.4748C81.1644 61.2454 81.234 60.9749 81.234 60.6637ZM84.7716 62.6336C84.4685 62.6336 84.1905 62.5735 83.9373 62.4532C83.6864 62.3325 83.4847 62.1565 83.3321 61.9246C83.1815 61.693 83.1063 61.4112 83.1063 61.0796C83.1063 60.8615 83.145 60.6695 83.2227 60.5034C83.3001 60.3376 83.4197 60.1944 83.5817 60.074C83.7436 59.9537 83.9509 59.8548 84.204 59.7777C84.4571 59.6981 84.7592 59.6367 85.1102 59.5934C85.3769 59.5617 85.6153 59.5312 85.8248 59.5014C86.0346 59.4698 86.1987 59.4207 86.3173 59.3549C86.4383 59.2891 86.4986 59.1891 86.4986 59.055V58.8368C86.4986 58.4551 86.3778 58.1519 86.1363 57.9268C85.8945 57.7021 85.5617 57.5894 85.1375 57.5894C84.7614 57.5894 84.4444 57.6723 84.1869 57.8384C83.9315 58.002 83.7527 58.2133 83.6499 58.4722L83.2567 58.3256C83.357 58.0758 83.5018 57.8679 83.6911 57.7021C83.8826 57.536 84.1015 57.4123 84.3477 57.3305C84.5962 57.2487 84.8559 57.2077 85.1273 57.2077C85.3622 57.2077 85.5855 57.2408 85.7975 57.3066C86.0119 57.3724 86.2023 57.4724 86.3687 57.6065C86.5373 57.7406 86.6707 57.9122 86.7688 58.1213C86.8669 58.3279 86.9159 58.5757 86.9159 58.8641V62.5212H86.4986V61.577H86.4679C86.3767 61.7726 86.2512 61.9508 86.0918 62.1122C85.9343 62.2714 85.7441 62.3986 85.5206 62.4939C85.2995 62.587 85.0499 62.6336 84.7716 62.6336ZM84.8128 62.2485C85.1411 62.2485 85.4316 62.1689 85.6847 62.01C85.9401 61.8486 86.1396 61.6283 86.2833 61.3487C86.4267 61.0694 86.4986 60.7524 86.4986 60.3979V59.6276C86.4461 59.673 86.3698 59.7141 86.2695 59.7504C86.1714 59.7843 86.0597 59.8151 85.9343 59.8424C85.8113 59.8672 85.6814 59.8901 85.5446 59.9104C85.41 59.9286 85.279 59.9457 85.1513 59.9617C84.7683 60.0071 84.456 60.0776 84.2142 60.1729C83.9749 60.266 83.7994 60.3888 83.6875 60.5409C83.5783 60.6932 83.5236 60.8772 83.5236 61.0931C83.5236 61.4498 83.6466 61.7315 83.8928 61.9384C84.1391 62.1452 84.4455 62.2485 84.8128 62.2485ZM91.5205 62.5212V55.5411H91.9342V58.4551H91.9753C92.0574 58.2304 92.1738 58.0235 92.3241 57.8348C92.4744 57.6465 92.6615 57.4952 92.8848 57.3815C93.1084 57.2658 93.3693 57.2077 93.668 57.2077C94.0897 57.2077 94.4581 57.3248 94.7726 57.5589C95.0871 57.7905 95.3311 58.1111 95.5044 58.5198C95.6776 58.9266 95.7644 59.3924 95.7644 59.9173C95.7644 60.4467 95.6776 60.916 95.5044 61.325C95.3311 61.7315 95.0885 62.0508 94.7759 62.2827C94.4636 62.5143 94.0955 62.6302 93.6713 62.6302C93.3729 62.6302 93.1117 62.5735 92.8884 62.4598C92.6648 62.3441 92.478 62.1918 92.3274 62.0031C92.1771 61.8122 92.0596 61.6043 91.9753 61.3795H91.9275V62.5212H91.5205ZM91.9309 59.914C91.9309 60.3594 91.998 60.7579 92.1326 61.1102C92.2694 61.46 92.4653 61.7373 92.7207 61.9417C92.976 62.1441 93.2817 62.2452 93.6373 62.2452C93.9974 62.2452 94.3053 62.1427 94.5606 61.9384C94.816 61.7315 95.0108 61.4523 95.1454 61.1C95.2822 60.7477 95.3504 60.3525 95.3504 59.914C95.3504 59.4753 95.2822 59.0811 95.1454 58.7313C95.0108 58.3813 94.816 58.1053 94.5606 57.9031C94.3053 57.6985 93.9974 57.5963 93.6373 57.5963C93.2817 57.5963 92.976 57.6974 92.7207 57.8996C92.4653 58.0995 92.2694 58.3747 92.1326 58.7245C91.998 59.072 91.9309 59.4687 91.9309 59.914ZM100.569 60.6637V57.2862H100.986V62.5212H100.569V61.6726H100.535C100.412 61.9428 100.212 62.1634 99.9362 62.3336C99.6627 62.5041 99.339 62.5892 98.9651 62.5892C98.6208 62.5892 98.3165 62.5143 98.0521 62.3645C97.7876 62.2144 97.5801 62.002 97.4297 61.7271C97.2791 61.4498 97.2039 61.1204 97.2039 60.7386V57.2862H97.6212V60.7216C97.6212 61.1578 97.7533 61.5112 98.0178 61.7817C98.2848 62.0497 98.6288 62.1838 99.0505 62.1838C99.3241 62.1838 99.5762 62.1224 99.8064 61.9998C100.037 61.877 100.221 61.7021 100.36 61.4748C100.499 61.2454 100.569 60.9749 100.569 60.6637ZM106.052 58.4143L105.666 58.5165C105.605 58.3257 105.517 58.1609 105.403 58.0224C105.289 57.8839 105.145 57.777 104.972 57.7021C104.801 57.6247 104.596 57.5861 104.356 57.5861C103.971 57.5861 103.655 57.6814 103.409 57.8723C103.165 58.0632 103.043 58.3122 103.043 58.6187C103.043 58.8688 103.126 59.0756 103.293 59.239C103.459 59.4003 103.713 59.5232 104.055 59.6072L104.863 59.8083C105.277 59.9104 105.59 60.0762 105.799 60.3059C106.009 60.5332 106.114 60.816 106.114 61.1545C106.114 61.4432 106.035 61.6988 105.878 61.9213C105.721 62.1441 105.503 62.3179 105.225 62.4427C104.949 62.5677 104.628 62.6302 104.261 62.6302C103.77 62.6302 103.368 62.5168 103.054 62.2895C102.739 62.0598 102.537 61.7315 102.448 61.3044L102.848 61.2022C102.923 61.5431 103.079 61.8031 103.317 61.9827C103.556 62.1598 103.87 62.2485 104.257 62.2485C104.686 62.2485 105.031 62.1474 105.293 61.9453C105.558 61.7431 105.69 61.4839 105.69 61.168C105.69 60.9273 105.613 60.724 105.458 60.558C105.302 60.3922 105.068 60.2707 104.753 60.1933L103.915 59.9889C103.487 59.8843 103.165 59.7174 102.951 59.4879C102.737 59.256 102.629 58.971 102.629 58.6325C102.629 58.3507 102.703 58.1031 102.852 57.8894C103 57.6759 103.204 57.5087 103.464 57.3884C103.724 57.268 104.021 57.2077 104.356 57.2077C104.801 57.2077 105.163 57.3124 105.444 57.5214C105.724 57.7305 105.927 58.0279 106.052 58.4143ZM109.528 62.6302C109.081 62.6302 108.688 62.5132 108.348 62.2791C108.008 62.0428 107.743 61.7202 107.551 61.3112C107.362 60.9022 107.267 60.4387 107.267 59.9206C107.267 59.4026 107.363 58.9393 107.554 58.5303C107.746 58.1213 108.012 57.7985 108.351 57.5622C108.691 57.3259 109.082 57.2077 109.524 57.2077C109.857 57.2077 110.16 57.276 110.434 57.4123C110.71 57.5487 110.938 57.7384 111.118 57.9814C111.3 58.2246 111.417 58.5063 111.467 58.8266H111.043C110.974 58.4722 110.803 58.1791 110.53 57.9475C110.258 57.7134 109.924 57.5963 109.528 57.5963C109.172 57.5963 108.855 57.6963 108.577 57.8963C108.299 58.094 108.08 58.3678 107.92 58.7176C107.761 59.0652 107.681 59.464 107.681 59.914C107.681 60.3569 107.759 60.7546 107.914 61.1069C108.069 61.4567 108.285 61.734 108.563 61.9384C108.841 62.1427 109.163 62.2452 109.528 62.2452C109.785 62.2452 110.02 62.194 110.232 62.0918C110.447 61.9896 110.626 61.8442 110.769 61.6555C110.913 61.4669 111.007 61.2465 111.053 60.9942H111.477C111.427 61.317 111.313 61.601 111.135 61.8464C110.957 62.0918 110.73 62.2838 110.455 62.4223C110.179 62.5608 109.87 62.6302 109.528 62.6302ZM114.291 62.6336C113.988 62.6336 113.71 62.5735 113.457 62.4532C113.206 62.3325 113.004 62.1565 112.852 61.9246C112.701 61.693 112.626 61.4112 112.626 61.0796C112.626 60.8615 112.665 60.6695 112.742 60.5034C112.82 60.3376 112.94 60.1944 113.101 60.074C113.263 59.9537 113.471 59.8548 113.724 59.7777C113.977 59.6981 114.279 59.6367 114.63 59.5934C114.897 59.5617 115.135 59.5312 115.345 59.5014C115.554 59.4698 115.719 59.4207 115.837 59.3549C115.958 59.2891 116.018 59.1891 116.018 59.055V58.8368C116.018 58.4551 115.898 58.1519 115.656 57.9268C115.414 57.7021 115.081 57.5894 114.657 57.5894C114.281 57.5894 113.964 57.6723 113.707 57.8384C113.451 58.002 113.272 58.2133 113.17 58.4722L112.776 58.3256C112.877 58.0758 113.022 57.8679 113.211 57.7021C113.402 57.536 113.621 57.4123 113.867 57.3305C114.116 57.2487 114.376 57.2077 114.647 57.2077C114.882 57.2077 115.105 57.2408 115.317 57.3066C115.532 57.3724 115.722 57.4724 115.888 57.6065C116.057 57.7406 116.191 57.9122 116.289 58.1213C116.386 58.3279 116.436 58.5757 116.436 58.8641V62.5212H116.018V61.577H115.988C115.896 61.7726 115.771 61.9508 115.611 62.1122C115.454 62.2714 115.264 62.3986 115.04 62.4939C114.819 62.587 114.569 62.6336 114.291 62.6336ZM114.332 62.2485C114.661 62.2485 114.951 62.1689 115.204 62.01C115.46 61.8486 115.659 61.6283 115.803 61.3487C115.946 61.0694 116.018 60.7524 116.018 60.3979V59.6276C115.966 59.673 115.89 59.7141 115.789 59.7504C115.691 59.7843 115.58 59.8151 115.454 59.8424C115.331 59.8672 115.201 59.8901 115.064 59.9104C114.93 59.9286 114.799 59.9457 114.671 59.9617C114.288 60.0071 113.976 60.0776 113.734 60.1729C113.495 60.266 113.319 60.3888 113.207 60.5409C113.098 60.6932 113.043 60.8772 113.043 61.0931C113.043 61.4498 113.166 61.7315 113.413 61.9384C113.659 62.1452 113.965 62.2485 114.332 62.2485ZM120.893 64.4844V57.2862H121.3V58.4551H121.351C121.433 58.2304 121.548 58.0235 121.697 57.8348C121.847 57.6465 122.033 57.4952 122.254 57.3815C122.478 57.2658 122.74 57.2077 123.041 57.2077C123.465 57.2077 123.834 57.3237 124.149 57.5556C124.463 57.7872 124.707 58.1075 124.88 58.5165C125.054 58.9233 125.14 59.3902 125.14 59.9173C125.14 60.4445 125.053 60.9124 124.877 61.3214C124.704 61.7282 124.46 62.0486 124.145 62.2827C123.833 62.5143 123.467 62.6302 123.047 62.6302C122.749 62.6302 122.487 62.5735 122.261 62.4598C122.038 62.3463 121.849 62.1951 121.697 62.0064C121.546 61.8158 121.431 61.6068 121.351 61.3795H121.31V64.4844H120.893ZM121.304 59.914C121.304 60.3594 121.372 60.7579 121.509 61.1102C121.645 61.46 121.841 61.7373 122.097 61.9417C122.352 62.1441 122.657 62.2452 123.01 62.2452C123.368 62.2452 123.674 62.1427 123.93 61.9384C124.187 61.7315 124.384 61.4523 124.518 61.1C124.655 60.7477 124.723 60.3525 124.723 59.914C124.723 59.4753 124.656 59.0811 124.521 58.7313C124.387 58.3813 124.192 58.1053 123.937 57.9031C123.681 57.6985 123.372 57.5963 123.01 57.5963C122.652 57.5963 122.345 57.6974 122.09 57.8996C121.837 58.0995 121.642 58.3747 121.505 58.7245C121.371 59.072 121.304 59.4687 121.304 59.914ZM128.631 62.6302C128.157 62.6302 127.744 62.5132 127.393 62.2791C127.042 62.0452 126.771 61.7249 126.579 61.3181C126.388 60.9113 126.292 60.4478 126.292 59.9275C126.292 59.405 126.388 58.9393 126.579 58.5303C126.773 58.1213 127.038 57.7985 127.376 57.5622C127.713 57.3259 128.099 57.2077 128.532 57.2077C128.826 57.2077 129.104 57.2669 129.366 57.3851C129.631 57.501 129.863 57.669 130.064 57.8894C130.267 58.1097 130.425 58.3758 130.539 58.687C130.655 58.9982 130.714 59.348 130.714 59.7366V59.9958H126.555V59.6174H130.296C130.296 59.2379 130.219 58.896 130.064 58.5914C129.909 58.2871 129.698 58.045 129.431 57.8657C129.164 57.6861 128.865 57.5963 128.532 57.5963C128.183 57.5963 127.872 57.6941 127.598 57.8894C127.327 58.0824 127.111 58.3438 126.952 58.6732C126.795 59.0029 126.713 59.3709 126.706 59.7777V59.9479C126.706 60.3842 126.782 60.7761 126.935 61.124C127.09 61.4691 127.311 61.7431 127.598 61.9453C127.886 62.1452 128.23 62.2452 128.631 62.2452C128.918 62.2452 129.163 62.1973 129.366 62.102C129.572 62.0042 129.739 61.886 129.869 61.7475C129.999 61.609 130.097 61.4748 130.163 61.3454L130.543 61.4988C130.463 61.6737 130.339 61.8486 130.17 62.0235C130.003 62.1962 129.792 62.3405 129.534 62.4565C129.279 62.5724 128.978 62.6302 128.631 62.6302ZM132.567 55.5411V62.5212H132.15V55.5411H132.567ZM135.686 62.6336C135.383 62.6336 135.104 62.5735 134.852 62.4532C134.601 62.3325 134.399 62.1565 134.246 61.9246C134.096 61.693 134.021 61.4112 134.021 61.0796C134.021 60.8615 134.059 60.6695 134.137 60.5034C134.214 60.3376 134.334 60.1944 134.496 60.074C134.658 59.9537 134.865 59.8548 135.118 59.7777C135.371 59.6981 135.673 59.6367 136.024 59.5934C136.291 59.5617 136.529 59.5312 136.739 59.5014C136.949 59.4698 137.113 59.4207 137.231 59.3549C137.353 59.2891 137.413 59.1891 137.413 59.055V58.8368C137.413 58.4551 137.292 58.1519 137.05 57.9268C136.809 57.7021 136.476 57.5894 136.052 57.5894C135.676 57.5894 135.359 57.6723 135.101 57.8384C134.846 58.002 134.667 58.2133 134.564 58.4722L134.171 58.3256C134.271 58.0758 134.416 57.8679 134.605 57.7021C134.797 57.536 135.016 57.4123 135.262 57.3305C135.51 57.2487 135.77 57.2077 136.042 57.2077C136.276 57.2077 136.5 57.2408 136.712 57.3066C136.926 57.3724 137.117 57.4724 137.283 57.6065C137.451 57.7406 137.585 57.9122 137.683 58.1213C137.781 58.3279 137.83 58.5757 137.83 58.8641V62.5212H137.413V61.577H137.382C137.291 61.7726 137.165 61.9508 137.006 62.1122C136.848 62.2714 136.658 62.3986 136.435 62.4939C136.214 62.587 135.964 62.6336 135.686 62.6336ZM135.727 62.2485C136.055 62.2485 136.346 62.1689 136.599 62.01C136.854 61.8486 137.054 61.6283 137.198 61.3487C137.341 61.0694 137.413 60.7524 137.413 60.3979V59.6276C137.36 59.673 137.284 59.7141 137.184 59.7504C137.086 59.7843 136.974 59.8151 136.848 59.8424C136.726 59.8672 136.596 59.8901 136.459 59.9104C136.324 59.9286 136.193 59.9457 136.066 59.9617C135.683 60.0071 135.37 60.0776 135.128 60.1729C134.889 60.266 134.714 60.3888 134.602 60.5409C134.492 60.6932 134.438 60.8772 134.438 61.0931C134.438 61.4498 134.561 61.7315 134.807 61.9384C135.053 62.1452 135.36 62.2485 135.727 62.2485ZM145.625 58.4143L145.239 58.5165C145.177 58.3257 145.09 58.1609 144.975 58.0224C144.862 57.8839 144.718 57.777 144.545 57.7021C144.374 57.6247 144.169 57.5861 143.929 57.5861C143.544 57.5861 143.228 57.6814 142.982 57.8723C142.738 58.0632 142.616 58.3122 142.616 58.6187C142.616 58.8688 142.699 59.0756 142.866 59.239C143.032 59.4003 143.286 59.5232 143.628 59.6072L144.435 59.8083C144.85 59.9104 145.163 60.0762 145.372 60.3059C145.582 60.5332 145.687 60.816 145.687 61.1545C145.687 61.4432 145.608 61.6988 145.451 61.9213C145.294 62.1441 145.076 62.3179 144.798 62.4427C144.522 62.5677 144.2 62.6302 143.833 62.6302C143.343 62.6302 142.941 62.5168 142.626 62.2895C142.311 62.0598 142.11 61.7315 142.021 61.3044L142.421 61.2022C142.496 61.5431 142.652 61.8031 142.89 61.9827C143.129 62.1598 143.442 62.2485 143.83 62.2485C144.259 62.2485 144.604 62.1474 144.866 61.9453C145.131 61.7431 145.263 61.4839 145.263 61.168C145.263 60.9273 145.185 60.724 145.03 60.558C144.875 60.3922 144.64 60.2707 144.326 60.1933L143.488 59.9889C143.059 59.8843 142.738 59.7174 142.524 59.4879C142.309 59.256 142.202 58.971 142.202 58.6325C142.202 58.3507 142.276 58.1031 142.424 57.8894C142.573 57.6759 142.777 57.5087 143.037 57.3884C143.296 57.268 143.594 57.2077 143.929 57.2077C144.374 57.2077 144.736 57.3124 145.017 57.5214C145.297 57.7305 145.5 58.0279 145.625 58.4143ZM148.522 62.6336C148.219 62.6336 147.941 62.5735 147.688 62.4532C147.438 62.3325 147.235 62.1565 147.083 61.9246C146.932 61.693 146.857 61.4112 146.857 61.0796C146.857 60.8615 146.896 60.6695 146.974 60.5034C147.051 60.3376 147.171 60.1944 147.332 60.074C147.494 59.9537 147.702 59.8548 147.955 59.7777C148.208 59.6981 148.51 59.6367 148.861 59.5934C149.128 59.5617 149.366 59.5312 149.576 59.5014C149.786 59.4698 149.95 59.4207 150.068 59.3549C150.189 59.2891 150.249 59.1891 150.249 59.055V58.8368C150.249 58.4551 150.129 58.1519 149.887 57.9268C149.645 57.7021 149.313 57.5894 148.888 57.5894C148.512 57.5894 148.196 57.6723 147.938 57.8384C147.682 58.002 147.504 58.2133 147.401 58.4722L147.008 58.3256C147.108 58.0758 147.253 57.8679 147.442 57.7021C147.633 57.536 147.852 57.4123 148.099 57.3305C148.347 57.2487 148.607 57.2077 148.878 57.2077C149.113 57.2077 149.336 57.2408 149.549 57.3066C149.763 57.3724 149.953 57.4724 150.12 57.6065C150.288 57.7406 150.422 57.9122 150.52 58.1213C150.618 58.3279 150.667 58.5757 150.667 58.8641V62.5212H150.249V61.577H150.219C150.128 61.7726 150.002 61.9508 149.843 62.1122C149.685 62.2714 149.495 62.3986 149.271 62.4939C149.05 62.587 148.801 62.6336 148.522 62.6336ZM148.564 62.2485C148.892 62.2485 149.183 62.1689 149.436 62.01C149.691 61.8486 149.89 61.6283 150.034 61.3487C150.178 61.0694 150.249 60.7524 150.249 60.3979V59.6276C150.197 59.673 150.121 59.7141 150.02 59.7504C149.922 59.7843 149.811 59.8151 149.685 59.8424C149.562 59.8672 149.432 59.8901 149.295 59.9104C149.161 59.9286 149.03 59.9457 148.902 59.9617C148.519 60.0071 148.207 60.0776 147.965 60.1729C147.726 60.266 147.55 60.3888 147.439 60.5409C147.329 60.6932 147.274 60.8772 147.274 61.0931C147.274 61.4498 147.397 61.7315 147.644 61.9384C147.89 62.1452 148.197 62.2485 148.564 62.2485ZM155.781 60.6637V57.2862H156.198V62.5212H155.781V61.6726H155.747C155.624 61.9428 155.424 62.1634 155.148 62.3336C154.875 62.5041 154.551 62.5892 154.177 62.5892C153.833 62.5892 153.528 62.5143 153.264 62.3645C153 62.2144 152.792 62.002 152.642 61.7271C152.491 61.4498 152.416 61.1204 152.416 60.7386V57.2862H152.833V60.7216C152.833 61.1578 152.965 61.5112 153.23 61.7817C153.497 62.0497 153.841 62.1838 154.263 62.1838C154.536 62.1838 154.788 62.1224 155.018 61.9998C155.249 61.877 155.433 61.7021 155.572 61.4748C155.711 61.2454 155.781 60.9749 155.781 60.6637ZM154.109 56.5398L155.025 55.0332H155.521L154.492 56.5398H154.109ZM159.729 62.6302C159.307 62.6302 158.939 62.5143 158.624 62.2827C158.31 62.0508 158.066 61.7315 157.893 61.325C157.721 60.916 157.636 60.4467 157.636 59.9173C157.636 59.3924 157.723 58.9266 157.896 58.5198C158.072 58.1111 158.317 57.7905 158.631 57.5589C158.946 57.3248 159.313 57.2077 159.732 57.2077C160.033 57.2077 160.294 57.2658 160.515 57.3815C160.739 57.4952 160.926 57.6465 161.076 57.8348C161.229 58.0235 161.345 58.2304 161.425 58.4551H161.466V55.5411H161.88V62.5212H161.477V61.3795H161.425C161.341 61.6043 161.223 61.8122 161.073 62.0031C160.922 62.1918 160.735 62.3441 160.512 62.4598C160.288 62.5735 160.028 62.6302 159.729 62.6302ZM159.766 62.2452C160.122 62.2452 160.427 62.1441 160.68 61.9417C160.935 61.7373 161.13 61.46 161.264 61.1102C161.401 60.7579 161.47 60.3594 161.47 59.914C161.47 59.4687 161.401 59.072 161.264 58.7245C161.13 58.3747 160.935 58.0995 160.68 57.8996C160.427 57.6974 160.122 57.5963 159.766 57.5963C159.406 57.5963 159.097 57.6985 158.84 57.9031C158.584 58.1053 158.388 58.3813 158.251 58.7313C158.117 59.0811 158.05 59.4753 158.05 59.914C158.05 60.3525 158.117 60.7477 158.251 61.1C158.388 61.4523 158.584 61.7315 158.84 61.9384C159.097 62.1427 159.406 62.2452 159.766 62.2452ZM165.806 62.6302C165.332 62.6302 164.919 62.5132 164.568 62.2791C164.217 62.0452 163.945 61.7249 163.754 61.3181C163.562 60.9113 163.467 60.4478 163.467 59.9275C163.467 59.405 163.562 58.9393 163.754 58.5303C163.948 58.1213 164.213 57.7985 164.551 57.5622C164.888 57.3259 165.273 57.2077 165.707 57.2077C166.001 57.2077 166.279 57.2669 166.541 57.3851C166.805 57.501 167.038 57.669 167.238 57.8894C167.442 58.1097 167.6 58.3758 167.714 58.687C167.83 58.9982 167.888 59.348 167.888 59.7366V59.9958H163.73V59.6174H167.471C167.471 59.2379 167.394 58.896 167.238 58.5914C167.083 58.2871 166.873 58.045 166.606 57.8657C166.339 57.6861 166.039 57.5963 165.707 57.5963C165.358 57.5963 165.046 57.6941 164.773 57.8894C164.502 58.0824 164.286 58.3438 164.127 58.6732C163.969 59.0029 163.887 59.3709 163.881 59.7777V59.9479C163.881 60.3842 163.957 60.7761 164.11 61.124C164.265 61.4691 164.486 61.7431 164.773 61.9453C165.06 62.1452 165.405 62.2452 165.806 62.2452C166.093 62.2452 166.338 62.1973 166.541 62.102C166.746 62.0042 166.914 61.886 167.044 61.7475C167.174 61.609 167.272 61.4748 167.338 61.3454L167.717 61.4988C167.638 61.6737 167.513 61.8486 167.345 62.0235C167.178 62.1962 166.966 62.3405 166.708 62.4565C166.453 62.5724 166.152 62.6302 165.806 62.6302ZM172.053 62.5212V57.2862H172.467V62.5212H172.053ZM172.262 56.3591C172.171 56.3591 172.091 56.3275 172.023 56.2638C171.957 56.2002 171.924 56.1228 171.924 56.0319C171.924 55.941 171.957 55.8639 172.023 55.8003C172.089 55.7367 172.169 55.7047 172.262 55.7047C172.353 55.7047 172.432 55.7367 172.498 55.8003C172.567 55.8639 172.601 55.941 172.601 56.0319C172.601 56.1228 172.568 56.2002 172.501 56.2638C172.435 56.3275 172.356 56.3591 172.262 56.3591ZM176.017 62.6302C175.595 62.6302 175.227 62.5143 174.912 62.2827C174.598 62.0508 174.354 61.7315 174.18 61.325C174.01 60.916 173.924 60.4467 173.924 59.9173C173.924 59.3924 174.011 58.9266 174.184 58.5198C174.36 58.1111 174.605 57.7905 174.919 57.5589C175.234 57.3248 175.601 57.2077 176.02 57.2077C176.321 57.2077 176.582 57.2658 176.803 57.3815C177.027 57.4952 177.214 57.6465 177.364 57.8348C177.517 58.0235 177.633 58.2304 177.713 58.4551H177.754V55.5411H178.168V62.5212H177.765V61.3795H177.713C177.629 61.6043 177.511 61.8122 177.361 62.0031C177.21 62.1918 177.024 62.3441 176.8 62.4598C176.577 62.5735 176.316 62.6302 176.017 62.6302ZM176.054 62.2452C176.41 62.2452 176.715 62.1441 176.968 61.9417C177.223 61.7373 177.418 61.46 177.552 61.1102C177.689 60.7579 177.758 60.3594 177.758 59.914C177.758 59.4687 177.689 59.072 177.552 58.7245C177.418 58.3747 177.223 58.0995 176.968 57.8996C176.715 57.6974 176.41 57.5963 176.054 57.5963C175.694 57.5963 175.385 57.6985 175.128 57.9031C174.872 58.1053 174.677 58.3813 174.54 58.7313C174.405 59.0811 174.338 59.4753 174.338 59.914C174.338 60.3525 174.405 60.7477 174.54 61.1C174.677 61.4523 174.872 61.7315 175.128 61.9384C175.385 62.1427 175.694 62.2452 176.054 62.2452ZM182.094 62.6302C181.62 62.6302 181.207 62.5132 180.856 62.2791C180.505 62.0452 180.233 61.7249 180.042 61.3181C179.85 60.9113 179.755 60.4478 179.755 59.9275C179.755 59.405 179.85 58.9393 180.042 58.5303C180.236 58.1213 180.501 57.7985 180.839 57.5622C181.176 57.3259 181.561 57.2077 181.995 57.2077C182.289 57.2077 182.567 57.2669 182.829 57.3851C183.093 57.501 183.326 57.669 183.526 57.8894C183.73 58.1097 183.888 58.3758 184.002 58.687C184.118 58.9982 184.176 59.348 184.176 59.7366V59.9958H180.018V59.6174H183.759C183.759 59.2379 183.682 58.896 183.526 58.5914C183.372 58.2871 183.161 58.045 182.894 57.8657C182.627 57.6861 182.327 57.5963 181.995 57.5963C181.646 57.5963 181.335 57.6941 181.061 57.8894C180.79 58.0824 180.574 58.3438 180.415 58.6732C180.257 59.0029 180.175 59.3709 180.169 59.7777V59.9479C180.169 60.3842 180.245 60.7761 180.398 61.124C180.553 61.4691 180.774 61.7431 181.061 61.9453C181.348 62.1452 181.693 62.2452 182.094 62.2452C182.381 62.2452 182.626 62.1973 182.829 62.102C183.034 62.0042 183.202 61.886 183.332 61.7475C183.462 61.609 183.56 61.4748 183.626 61.3454L184.005 61.4988C183.926 61.6737 183.801 61.8486 183.633 62.0235C183.466 62.1962 183.254 62.3405 182.996 62.4565C182.741 62.5724 182.44 62.6302 182.094 62.6302ZM187.004 62.6336C186.701 62.6336 186.423 62.5735 186.17 62.4532C185.919 62.3325 185.717 62.1565 185.565 61.9246C185.414 61.693 185.339 61.4112 185.339 61.0796C185.339 60.8615 185.378 60.6695 185.455 60.5034C185.533 60.3376 185.652 60.1944 185.814 60.074C185.976 59.9537 186.184 59.8548 186.437 59.7777C186.69 59.6981 186.992 59.6367 187.343 59.5934C187.61 59.5617 187.848 59.5312 188.058 59.5014C188.267 59.4698 188.431 59.4207 188.55 59.3549C188.671 59.2891 188.731 59.1891 188.731 59.055V58.8368C188.731 58.4551 188.611 58.1519 188.369 57.9268C188.127 57.7021 187.794 57.5894 187.37 57.5894C186.994 57.5894 186.677 57.6723 186.42 57.8384C186.164 58.002 185.985 58.2133 185.883 58.4722L185.489 58.3256C185.59 58.0758 185.735 57.8679 185.924 57.7021C186.115 57.536 186.334 57.4123 186.58 57.3305C186.829 57.2487 187.089 57.2077 187.36 57.2077C187.595 57.2077 187.818 57.2408 188.03 57.3066C188.245 57.3724 188.435 57.4724 188.601 57.6065C188.77 57.7406 188.903 57.9122 189.002 58.1213C189.1 58.3279 189.149 58.5757 189.149 58.8641V62.5212H188.731V61.577H188.701C188.609 61.7726 188.484 61.9508 188.325 62.1122C188.167 62.2714 187.977 62.3986 187.753 62.4939C187.532 62.587 187.283 62.6336 187.004 62.6336ZM187.046 62.2485C187.374 62.2485 187.664 62.1689 187.917 62.01C188.173 61.8486 188.372 61.6283 188.516 61.3487C188.659 61.0694 188.731 60.7524 188.731 60.3979V59.6276C188.679 59.673 188.603 59.7141 188.502 59.7504C188.404 59.7843 188.292 59.8151 188.167 59.8424C188.044 59.8672 187.914 59.8901 187.777 59.9104C187.643 59.9286 187.512 59.9457 187.384 59.9617C187.001 60.0071 186.689 60.0776 186.447 60.1729C186.208 60.266 186.032 60.3888 185.921 60.5409C185.811 60.6932 185.756 60.8772 185.756 61.0931C185.756 61.4498 185.879 61.7315 186.126 61.9384C186.372 62.1452 186.679 62.2485 187.046 62.2485ZM191.315 55.5411V62.5212H190.898V55.5411H191.315ZM197.72 62.6302C197.273 62.6302 196.88 62.5132 196.54 62.2791C196.201 62.0428 195.935 61.7202 195.744 61.3112C195.554 60.9022 195.46 60.4387 195.46 59.9206C195.46 59.4026 195.555 58.9393 195.747 58.5303C195.938 58.1213 196.204 57.7985 196.544 57.5622C196.883 57.3259 197.274 57.2077 197.717 57.2077C198.049 57.2077 198.353 57.276 198.626 57.4123C198.902 57.5487 199.13 57.7384 199.31 57.9814C199.493 58.2246 199.609 58.5063 199.659 58.8266H199.235C199.167 58.4722 198.996 58.1791 198.722 57.9475C198.451 57.7134 198.117 57.5963 197.72 57.5963C197.364 57.5963 197.048 57.6963 196.769 57.8963C196.491 58.094 196.272 58.3678 196.113 58.7176C195.953 59.0652 195.873 59.464 195.873 59.914C195.873 60.3569 195.951 60.7546 196.106 61.1069C196.261 61.4567 196.477 61.734 196.756 61.9384C197.034 62.1427 197.355 62.2452 197.72 62.2452C197.978 62.2452 198.212 62.194 198.424 62.0918C198.639 61.9896 198.818 61.8442 198.961 61.6555C199.105 61.4669 199.2 61.2465 199.245 60.9942H199.669C199.619 61.317 199.505 61.601 199.327 61.8464C199.15 62.0918 198.923 62.2838 198.647 62.4223C198.371 62.5608 198.062 62.6302 197.72 62.6302ZM203.044 62.6302C202.611 62.6302 202.226 62.5143 201.889 62.2827C201.551 62.0486 201.286 61.7271 201.092 61.3181C200.898 60.9091 200.801 60.4434 200.801 59.9206C200.801 59.3959 200.898 58.9302 201.092 58.5234C201.286 58.1144 201.551 57.793 201.889 57.5589C202.226 57.3248 202.611 57.2077 203.044 57.2077C203.478 57.2077 203.863 57.3248 204.2 57.5589C204.538 57.793 204.803 58.1144 204.997 58.5234C205.191 58.9324 205.288 59.3981 205.288 59.9206C205.288 60.4434 205.191 60.9091 204.997 61.3181C204.803 61.7271 204.538 62.0486 204.2 62.2827C203.863 62.5143 203.478 62.6302 203.044 62.6302ZM203.044 62.2452C203.411 62.2452 203.732 62.1416 204.005 61.9351C204.281 61.7282 204.495 61.4487 204.645 61.0967C204.798 60.7444 204.874 60.3525 204.874 59.9206C204.874 59.489 204.798 59.0982 204.645 58.7484C204.492 58.3962 204.279 58.1166 204.005 57.9098C203.732 57.701 203.411 57.5963 203.044 57.5963C202.677 57.5963 202.357 57.701 202.084 57.9098C201.81 58.1166 201.597 58.3962 201.444 58.7484C201.291 59.0982 201.215 59.489 201.215 59.9206C201.215 60.3525 201.29 60.7444 201.441 61.0967C201.593 61.4487 201.807 61.7282 202.08 61.9351C202.356 62.1416 202.677 62.2452 203.044 62.2452ZM206.725 62.5212V57.2862H207.132V58.0769H207.173C207.273 57.8134 207.447 57.6043 207.693 57.4498C207.939 57.2953 208.236 57.2179 208.582 57.2179C208.963 57.2179 209.269 57.3088 209.502 57.4906C209.737 57.6723 209.905 57.9188 210.008 58.2304H210.046C210.148 57.9235 210.332 57.6781 210.596 57.4941C210.863 57.3102 211.191 57.2179 211.581 57.2179C212.089 57.2179 212.477 57.3782 212.744 57.6985C213.013 58.0166 213.147 58.4529 213.147 59.0073V62.5212H212.73V59.0073C212.73 58.5711 212.625 58.2279 212.415 57.9781C212.206 57.7283 211.898 57.6032 211.492 57.6032C211.059 57.6032 210.726 57.7384 210.494 58.0086C210.261 58.2791 210.145 58.6234 210.145 59.0415V62.5212H209.728V58.9801C209.728 58.5733 209.625 58.2427 209.42 57.9883C209.215 57.7316 208.907 57.6032 208.496 57.6032C208.218 57.6032 207.978 57.6668 207.775 57.7941C207.574 57.9213 207.418 58.0962 207.306 58.3188C207.197 58.5416 207.142 58.7972 207.142 59.0858V62.5212H206.725ZM216.927 62.6302C216.453 62.6302 216.04 62.5132 215.689 62.2791C215.338 62.0452 215.066 61.7249 214.875 61.3181C214.683 60.9113 214.588 60.4478 214.588 59.9275C214.588 59.405 214.683 58.9393 214.875 58.5303C215.069 58.1213 215.334 57.7985 215.672 57.5622C216.009 57.3259 216.395 57.2077 216.828 57.2077C217.122 57.2077 217.4 57.2669 217.662 57.3851C217.926 57.501 218.159 57.669 218.36 57.8894C218.563 58.1097 218.721 58.3758 218.835 58.687C218.951 58.9982 219.009 59.348 219.009 59.7366V59.9958H214.851V59.6174H218.592C218.592 59.2379 218.515 58.896 218.36 58.5914C218.205 58.2871 217.994 58.045 217.727 57.8657C217.46 57.6861 217.161 57.5963 216.828 57.5963C216.479 57.5963 216.168 57.6941 215.894 57.8894C215.623 58.0824 215.407 58.3438 215.248 58.6732C215.09 59.0029 215.008 59.3709 215.001 59.7777V59.9479C215.001 60.3842 215.078 60.7761 215.231 61.124C215.386 61.4691 215.607 61.7431 215.894 61.9453C216.181 62.1452 216.526 62.2452 216.927 62.2452C217.214 62.2452 217.459 62.1973 217.662 62.102C217.867 62.0042 218.035 61.886 218.165 61.7475C218.295 61.609 218.393 61.4748 218.459 61.3454L218.838 61.4988C218.759 61.6737 218.634 61.8486 218.466 62.0235C218.299 62.1962 218.087 62.3405 217.83 62.4565C217.574 62.5724 217.273 62.6302 216.927 62.6302ZM222.415 62.6302C221.969 62.6302 221.575 62.5132 221.236 62.2791C220.896 62.0428 220.63 61.7202 220.439 61.3112C220.25 60.9022 220.155 60.4387 220.155 59.9206C220.155 59.4026 220.251 58.9393 220.442 58.5303C220.634 58.1213 220.899 57.7985 221.239 57.5622C221.579 57.3259 221.97 57.2077 222.412 57.2077C222.745 57.2077 223.048 57.276 223.322 57.4123C223.597 57.5487 223.825 57.7384 224.006 57.9814C224.188 58.2246 224.304 58.5063 224.354 58.8266H223.93C223.862 58.4722 223.691 58.1791 223.418 57.9475C223.146 57.7134 222.812 57.5963 222.415 57.5963C222.06 57.5963 221.743 57.6963 221.465 57.8963C221.187 58.094 220.968 58.3678 220.808 58.7176C220.648 59.0652 220.569 59.464 220.569 59.914C220.569 60.3569 220.646 60.7546 220.801 61.1069C220.956 61.4567 221.173 61.734 221.451 61.9384C221.729 62.1427 222.051 62.2452 222.415 62.2452C222.673 62.2452 222.908 62.194 223.12 62.0918C223.334 61.9896 223.513 61.8442 223.657 61.6555C223.8 61.4669 223.895 61.2465 223.941 60.9942H224.365C224.315 61.317 224.2 61.601 224.023 61.8464C223.845 62.0918 223.618 62.2838 223.342 62.4223C223.066 62.5608 222.757 62.6302 222.415 62.6302ZM222.179 62.4939H222.549L222.498 62.7666C222.712 62.8007 222.884 62.8836 223.014 63.0153C223.144 63.1494 223.209 63.3312 223.209 63.5606C223.209 63.8198 223.115 64.0184 222.928 64.1572C222.744 64.2957 222.472 64.3684 222.115 64.3753L222.101 64.0514C222.343 64.047 222.523 64.006 222.641 63.9289C222.76 63.8537 222.82 63.7344 222.822 63.5708C222.82 63.389 222.757 63.2552 222.634 63.1687C222.511 63.0825 222.323 63.0381 222.07 63.0359L222.179 62.4939ZM227.179 62.6336C226.876 62.6336 226.598 62.5735 226.345 62.4532C226.094 62.3325 225.892 62.1565 225.739 61.9246C225.589 61.693 225.514 61.4112 225.514 61.0796C225.514 60.8615 225.552 60.6695 225.63 60.5034C225.707 60.3376 225.827 60.1944 225.989 60.074C226.151 59.9537 226.358 59.8548 226.611 59.7777C226.864 59.6981 227.167 59.6367 227.517 59.5934C227.784 59.5617 228.023 59.5312 228.232 59.5014C228.442 59.4698 228.606 59.4207 228.725 59.3549C228.846 59.2891 228.906 59.1891 228.906 59.055V58.8368C228.906 58.4551 228.785 58.1519 228.544 57.9268C228.302 57.7021 227.969 57.5894 227.545 57.5894C227.169 57.5894 226.852 57.6723 226.594 57.8384C226.339 58.002 226.16 58.2133 226.058 58.4722L225.664 58.3256C225.765 58.0758 225.909 57.8679 226.098 57.7021C226.29 57.536 226.509 57.4123 226.755 57.3305C227.003 57.2487 227.264 57.2077 227.535 57.2077C227.77 57.2077 227.993 57.2408 228.205 57.3066C228.419 57.3724 228.61 57.4724 228.776 57.6065C228.945 57.7406 229.078 57.9122 229.176 58.1213C229.274 58.3279 229.323 58.5757 229.323 58.8641V62.5212H228.906V61.577H228.875C228.784 61.7726 228.659 61.9508 228.499 62.1122C228.342 62.2714 228.151 62.3986 227.928 62.4939C227.707 62.587 227.457 62.6336 227.179 62.6336ZM227.22 62.2485C227.548 62.2485 227.839 62.1689 228.092 62.01C228.347 61.8486 228.547 61.6283 228.691 61.3487C228.834 61.0694 228.906 60.7524 228.906 60.3979V59.6276C228.854 59.673 228.777 59.7141 228.677 59.7504C228.579 59.7843 228.467 59.8151 228.342 59.8424C228.219 59.8672 228.089 59.8901 227.952 59.9104C227.817 59.9286 227.686 59.9457 227.559 59.9617C227.176 60.0071 226.863 60.0776 226.622 60.1729C226.382 60.266 226.207 60.3888 226.095 60.5409C225.986 60.6932 225.931 60.8772 225.931 61.0931C225.931 61.4498 226.054 61.7315 226.3 61.9384C226.546 62.1452 226.853 62.2485 227.22 62.2485ZM235.173 62.6336C234.869 62.6336 234.591 62.5735 234.338 62.4532C234.088 62.3325 233.886 62.1565 233.733 61.9246C233.582 61.693 233.507 61.4112 233.507 61.0796C233.507 60.8615 233.546 60.6695 233.624 60.5034C233.701 60.3376 233.821 60.1944 233.983 60.074C234.144 59.9537 234.352 59.8548 234.605 59.7777C234.858 59.6981 235.16 59.6367 235.511 59.5934C235.778 59.5617 236.016 59.5312 236.226 59.5014C236.436 59.4698 236.6 59.4207 236.718 59.3549C236.839 59.2891 236.9 59.1891 236.9 59.055V58.8368C236.9 58.4551 236.779 58.1519 236.537 57.9268C236.295 57.7021 235.963 57.5894 235.539 57.5894C235.162 57.5894 234.846 57.6723 234.588 57.8384C234.333 58.002 234.154 58.2133 234.051 58.4722L233.658 58.3256C233.758 58.0758 233.903 57.8679 234.092 57.7021C234.283 57.536 234.502 57.4123 234.749 57.3305C234.997 57.2487 235.257 57.2077 235.528 57.2077C235.763 57.2077 235.987 57.2408 236.199 57.3066C236.413 57.3724 236.603 57.4724 236.77 57.6065C236.938 57.7406 237.072 57.9122 237.17 58.1213C237.268 58.3279 237.317 58.5757 237.317 58.8641V62.5212H236.9V61.577H236.869C236.778 61.7726 236.652 61.9508 236.493 62.1122C236.335 62.2714 236.145 62.3986 235.921 62.4939C235.7 62.587 235.451 62.6336 235.173 62.6336ZM235.214 62.2485C235.542 62.2485 235.833 62.1689 236.086 62.01C236.341 61.8486 236.54 61.6283 236.684 61.3487C236.828 61.0694 236.9 60.7524 236.9 60.3979V59.6276C236.847 59.673 236.771 59.7141 236.67 59.7504C236.572 59.7843 236.461 59.8151 236.335 59.8424C236.212 59.8672 236.082 59.8901 235.945 59.9104C235.811 59.9286 235.68 59.9457 235.552 59.9617C235.169 60.0071 234.857 60.0776 234.615 60.1729C234.376 60.266 234.2 60.3888 234.089 60.5409C233.979 60.6932 233.924 60.8772 233.924 61.0931C233.924 61.4498 234.047 61.7315 234.294 61.9384C234.54 62.1452 234.847 62.2485 235.214 62.2485ZM242.605 64.4844V61.3795H242.564C242.485 61.6068 242.368 61.8158 242.216 62.0064C242.063 62.1951 241.875 62.3463 241.651 62.4598C241.428 62.5735 241.167 62.6302 240.868 62.6302C240.449 62.6302 240.082 62.5143 239.767 62.2827C239.455 62.0486 239.211 61.7282 239.035 61.3214C238.862 60.9124 238.775 60.4445 238.775 59.9173C238.775 59.3902 238.862 58.9233 239.035 58.5165C239.208 58.1075 239.452 57.7872 239.767 57.5556C240.082 57.3237 240.45 57.2077 240.871 57.2077C241.175 57.2077 241.437 57.2658 241.658 57.3815C241.879 57.4952 242.065 57.6465 242.216 57.8348C242.366 58.0235 242.482 58.2304 242.564 58.4551H242.616V57.2862H243.019V64.4844H242.605ZM240.906 62.2452C241.259 62.2452 241.562 62.1441 241.815 61.9417C242.071 61.7373 242.267 61.46 242.404 61.1102C242.54 60.7579 242.609 60.3594 242.609 59.914C242.609 59.4687 242.541 59.072 242.407 58.7245C242.273 58.3747 242.077 58.0995 241.822 57.8996C241.567 57.6974 241.261 57.5963 240.906 57.5963C240.543 57.5963 240.234 57.6985 239.979 57.9031C239.724 58.1053 239.528 58.3813 239.391 58.7313C239.256 59.0811 239.189 59.4753 239.189 59.914C239.189 60.3525 239.258 60.7477 239.394 61.1C239.531 61.4523 239.727 61.7315 239.982 61.9384C240.238 62.1427 240.546 62.2452 240.906 62.2452ZM248.12 60.6637V57.2862H248.538V62.5212H248.12V61.6726H248.086C247.963 61.9428 247.764 62.1634 247.488 62.3336C247.214 62.5041 246.89 62.5892 246.517 62.5892C246.172 62.5892 245.868 62.5143 245.603 62.3645C245.339 62.2144 245.132 62.002 244.981 61.7271C244.831 61.4498 244.756 61.1204 244.756 60.7386V57.2862H245.173V60.7216C245.173 61.1578 245.305 61.5112 245.569 61.7817C245.836 62.0497 246.18 62.1838 246.602 62.1838C246.876 62.1838 247.128 62.1224 247.358 61.9998C247.588 61.877 247.773 61.7021 247.912 61.4748C248.051 61.2454 248.12 60.9749 248.12 60.6637ZM250.287 62.5212V57.2862H250.701V62.5212H250.287ZM250.495 56.3591C250.404 56.3591 250.324 56.3275 250.256 56.2638C250.19 56.2002 250.157 56.1228 250.157 56.0319C250.157 55.941 250.19 55.8639 250.256 55.8003C250.322 55.7367 250.402 55.7047 250.495 55.7047C250.587 55.7047 250.665 55.7367 250.731 55.8003C250.8 55.8639 250.834 55.941 250.834 56.0319C250.834 56.1228 250.801 56.2002 250.735 56.2638C250.669 56.3275 250.589 56.3591 250.495 56.3591ZM252.838 62.5655C252.735 62.5655 252.648 62.5303 252.575 62.4598C252.504 62.387 252.469 62.2997 252.469 62.1973C252.469 62.0973 252.504 62.0111 252.575 61.9384C252.648 61.8657 252.735 61.8293 252.838 61.8293C252.938 61.8293 253.025 61.8657 253.098 61.9384C253.171 62.0111 253.207 62.0973 253.207 62.1973C253.207 62.2656 253.19 62.3281 253.156 62.3848C253.124 62.4394 253.08 62.4837 253.023 62.5179C252.968 62.5495 252.906 62.5655 252.838 62.5655Z" fill="black"/>
<path d="M95.3972 19.197V45.9958H90.9865V34.2737H78.3351V45.9958H73.9245V19.197H78.3351V30.6877H90.9865V19.197H95.3972ZM120.742 34.8521C120.742 35.6489 120.69 36.3689 120.587 37.0114H104.299C104.428 38.708 105.06 40.0706 106.195 41.0987C107.33 42.1269 108.722 42.6411 110.373 42.6411C112.746 42.6411 114.422 41.6515 115.403 39.672H120.161C119.517 41.6256 118.343 43.2324 116.641 44.4919C114.964 45.7258 112.875 46.3428 110.373 46.3428C108.335 46.3428 106.504 45.893 104.879 44.9932C103.28 44.0678 102.016 42.7824 101.088 41.1373C100.185 39.4663 99.7334 37.5383 99.7334 35.3534C99.7334 33.1684 100.172 31.2531 101.049 29.608C101.952 27.937 103.202 26.6518 104.802 25.7521C106.427 24.8524 108.284 24.4025 110.373 24.4025C112.385 24.4025 114.178 24.8395 115.751 25.7135C117.324 26.5876 118.549 27.8214 119.426 29.4152C120.303 30.9832 120.742 32.7955 120.742 34.8521ZM116.138 33.464C116.112 31.8445 115.532 30.5464 114.397 29.5695C113.262 28.5926 111.856 28.1042 110.18 28.1042C108.658 28.1042 107.355 28.5926 106.272 29.5695C105.189 30.5205 104.544 31.8189 104.337 33.464H116.138ZM123.612 35.2763C123.612 33.1426 124.051 31.2531 124.927 29.608C125.83 27.9629 127.043 26.6904 128.564 25.7907C130.112 24.8652 131.814 24.4025 133.671 24.4025C135.348 24.4025 136.805 24.7367 138.043 25.4051C139.307 26.0477 140.313 26.8575 141.061 27.8343V24.7496H145.51V45.9958H141.061V42.8339C140.313 43.8364 139.294 44.6718 138.004 45.3402C136.715 46.0087 135.245 46.3428 133.594 46.3428C131.763 46.3428 130.086 45.8801 128.564 44.9547C127.043 44.0036 125.83 42.6926 124.927 41.0216C124.051 39.325 123.612 37.41 123.612 35.2763ZM141.061 35.3534C141.061 33.8881 140.751 32.6157 140.132 31.536C139.539 30.4563 138.753 29.6337 137.772 29.0682C136.792 28.5028 135.735 28.2199 134.6 28.2199C133.465 28.2199 132.407 28.5028 131.427 29.0682C130.447 29.608 129.648 30.4178 129.029 31.4974C128.435 32.5515 128.139 33.811 128.139 35.2763C128.139 36.7415 128.435 38.0269 129.029 39.1322C129.648 40.2375 130.447 41.0858 131.427 41.6771C132.433 42.2426 133.491 42.5254 134.6 42.5254C135.735 42.5254 136.792 42.2426 137.772 41.6771C138.753 41.1117 139.539 40.289 140.132 39.2093C140.751 38.104 141.061 36.8186 141.061 35.3534ZM155.714 17.4619V45.9958H151.303V17.4619H155.714ZM166.65 28.3356V40.0962C166.65 40.893 166.831 41.4714 167.192 41.8313C167.579 42.1654 168.224 42.3326 169.127 42.3326H171.835V45.9958H168.353C166.367 45.9958 164.845 45.533 163.787 44.6076C162.73 43.6822 162.201 42.1784 162.201 40.0962V28.3356H159.686V24.7496H162.201V19.4669H166.65V24.7496H171.835V28.3356H166.65ZM186.926 24.4025C188.551 24.4025 189.996 24.7496 191.26 25.4436C192.549 26.1377 193.555 27.1659 194.277 28.5284C195.026 29.8909 195.399 31.536 195.399 33.464V45.9958H191.028V34.1195C191.028 32.2171 190.55 30.7648 189.596 29.7623C188.642 28.7341 187.339 28.2199 185.688 28.2199C184.038 28.2199 182.722 28.7341 181.742 29.7623C180.788 30.7648 180.311 32.2171 180.311 34.1195V45.9958H175.9V17.4619H180.311V27.2174C181.059 26.3176 182 25.6236 183.135 25.1352C184.296 24.6468 185.559 24.4025 186.926 24.4025ZM226.831 24.4025C228.508 24.4025 230.004 24.7496 231.319 25.4436C232.66 26.1377 233.705 27.1659 234.453 28.5284C235.227 29.8909 235.614 31.536 235.614 33.464V45.9958H231.242V34.1195C231.242 32.2171 230.765 30.7648 229.81 29.7623C228.856 28.7341 227.553 28.2199 225.903 28.2199C224.252 28.2199 222.937 28.7341 221.956 29.7623C221.002 30.7648 220.525 32.2171 220.525 34.1195V45.9958H216.153V34.1195C216.153 32.2171 215.676 30.7648 214.722 29.7623C213.767 28.7341 212.465 28.2199 210.814 28.2199C209.163 28.2199 207.848 28.7341 206.868 29.7623C205.913 30.7648 205.436 32.2171 205.436 34.1195V45.9958H201.025V24.7496H205.436V27.1788C206.158 26.3048 207.074 25.6236 208.183 25.1352C209.292 24.6468 210.479 24.4025 211.742 24.4025C213.445 24.4025 214.967 24.7624 216.308 25.4822C217.649 26.202 218.681 27.2431 219.403 28.6055C220.048 27.3202 221.054 26.3048 222.421 25.5593C223.788 24.7881 225.258 24.4025 226.831 24.4025ZM239.756 35.2763C239.756 33.1426 240.194 31.2531 241.072 29.608C241.974 27.9629 243.186 26.6904 244.708 25.7907C246.256 24.8652 247.958 24.4025 249.815 24.4025C251.492 24.4025 252.949 24.7367 254.187 25.4051C255.451 26.0477 256.457 26.8575 257.205 27.8343V24.7496H261.654V45.9958H257.205V42.8339C256.457 43.8364 255.438 44.6718 254.149 45.3402C252.859 46.0087 251.389 46.3428 249.738 46.3428C247.907 46.3428 246.23 45.8801 244.708 44.9547C243.186 44.0036 241.974 42.6926 241.072 41.0216C240.194 39.325 239.756 37.41 239.756 35.2763ZM257.205 35.3534C257.205 33.8881 256.896 32.6157 256.276 31.536C255.683 30.4563 254.896 29.6337 253.916 29.0682C252.936 28.5028 251.879 28.2199 250.744 28.2199C249.609 28.2199 248.551 28.5028 247.571 29.0682C246.591 29.608 245.792 30.4178 245.173 31.4974C244.579 32.5515 244.283 33.811 244.283 35.2763C244.283 36.7415 244.579 38.0269 245.173 39.1322C245.792 40.2375 246.591 41.0858 247.571 41.6771C248.577 42.2426 249.635 42.5254 250.744 42.5254C251.879 42.5254 252.936 42.2426 253.916 41.6771C254.896 41.1117 255.683 40.289 256.276 39.2093C256.896 38.104 257.205 36.8186 257.205 35.3534ZM271.858 27.8729C272.606 26.896 273.625 26.0734 274.914 25.4051C276.204 24.7367 277.66 24.4025 279.285 24.4025C281.142 24.4025 282.834 24.8652 284.354 25.7907C285.901 26.6904 287.114 27.9629 287.991 29.608C288.869 31.2531 289.306 33.1426 289.306 35.2763C289.306 37.41 288.869 39.325 287.991 41.0216C287.114 42.6926 285.901 44.0036 284.354 44.9547C282.834 45.8801 281.142 46.3428 279.285 46.3428C277.66 46.3428 276.217 46.0214 274.953 45.3788C273.689 44.7104 272.658 43.8879 271.858 42.911V56.0983H267.447V24.7496H271.858V27.8729ZM284.818 35.2763C284.818 33.811 284.508 32.5515 283.889 31.4974C283.298 30.4178 282.497 29.608 281.491 29.0682C280.512 28.5028 279.454 28.2199 278.318 28.2199C277.21 28.2199 276.152 28.5028 275.146 29.0682C274.166 29.6337 273.367 30.4563 272.748 31.536C272.155 32.6157 271.858 33.8881 271.858 35.3534C271.858 36.8186 272.155 38.104 272.748 39.2093C273.367 40.289 274.166 41.1117 275.146 41.6771C276.152 42.2426 277.21 42.5254 278.318 42.5254C279.454 42.5254 280.512 42.2426 281.491 41.6771C282.497 41.0858 283.298 40.2375 283.889 39.1322C284.508 38.0269 284.818 36.7415 284.818 35.2763Z" fill="#008FFF"/>
</svg>
