<svg width="40" height="40" viewBox="0 0 28 28" fill="none" xmlns="http://www.w3.org/2000/svg">
<g clip-path="url(#clip0_1_41)">
<path d="M20.0438 14.8471C20.0852 19.0764 23.9569 20.4838 23.9998 20.5018C23.967 20.601 23.3811 22.5074 21.96 24.4765C20.7315 26.179 19.4565 27.8752 17.4479 27.9103C15.4744 27.9448 14.8397 26.8007 12.5834 26.8007C10.3276 26.8007 9.62255 27.8752 7.7543 27.9448C5.81555 28.0144 4.33917 26.1039 3.10055 24.4076C0.569297 20.938 -1.36505 14.6032 1.2323 10.3271C2.52258 8.20356 4.82855 6.85893 7.3313 6.82444C9.23508 6.79004 11.0321 8.03884 12.1959 8.03884C13.359 8.03884 15.5427 6.53707 17.8383 6.7576C18.7993 6.79556 21.497 7.1256 23.2292 9.52969C23.0895 9.61173 20.0103 11.3114 20.0438 14.8472M16.3348 4.46213C17.3641 3.2808 18.0569 1.63636 17.8679 0C16.3842 0.0565333 14.5902 0.937422 13.5259 2.11804C12.5722 3.16364 11.737 4.83707 11.9624 6.44098C13.6161 6.56231 15.3054 5.64418 16.3348 4.46213Z" fill="black"/>
</g>
<defs>
<clipPath id="clip0_1_41">
<rect width="40" height="40" fill="white"/>
</clipPath>
</defs>
</svg>
