<svg width="20" height="20" viewBox="0 0 20 20" fill="none" xmlns="http://www.w3.org/2000/svg">
<g id="Footer_00000060731145794484315360000009105668273505501614_">
<path id="Vector" d="M15.5892 0.000193494H4.2548C1.936 -0.0218065 0.0352 1.83499 0 4.15379V15.8182C0.0264 18.1414 1.9316 19.9982 4.2504 19.9718H15.5716C17.8948 19.9982 19.7956 18.1414 19.8264 15.8182V4.15379C19.8 1.83499 17.9036 -0.0218065 15.5892 0.000193494ZM18.1324 15.8182C18.1324 17.1778 17.0324 18.2778 15.6772 18.2778C15.6464 18.2778 15.62 18.2778 15.5892 18.2778H4.2548C2.8996 18.3262 1.76 17.2658 1.7116 15.9062C1.7116 15.8754 1.7116 15.849 1.7116 15.8182V4.15379C1.7116 2.79419 2.8116 1.6942 4.1668 1.6942C4.1976 1.6942 4.224 1.6942 4.2548 1.6942H15.576C16.9312 1.6458 18.0708 2.7062 18.1192 4.0658C18.1192 4.0966 18.1192 4.12299 18.1192 4.15379L18.1324 15.8182Z" fill="#757575"/>
<path id="Vector_2" d="M9.92197 4.7915C7.05757 4.7915 4.73438 7.1147 4.73438 9.9791C4.73438 12.8435 7.05757 15.1667 9.92197 15.1667C12.7864 15.1667 15.1096 12.8435 15.1096 9.9791C15.1096 7.1147 12.7864 4.7915 9.92197 4.7915ZM9.92197 13.3979C8.00797 13.3979 6.45477 11.8447 6.45477 9.93071C6.45477 8.01671 8.00797 6.46351 9.92197 6.46351C11.836 6.46351 13.3892 8.01671 13.3892 9.93071C13.3892 9.94831 13.3892 9.9615 13.3892 9.9791C13.3804 11.8887 11.836 13.4375 9.92197 13.4463V13.3979Z" fill="#757575"/>
<path id="Vector_3" d="M15.488 5.75108C16.1611 5.75108 16.7068 5.2054 16.7068 4.53228C16.7068 3.85915 16.1611 3.31348 15.488 3.31348C14.8148 3.31348 14.2692 3.85915 14.2692 4.53228C14.2692 5.2054 14.8148 5.75108 15.488 5.75108Z" fill="#757575"/>
</g>
</svg>
