<svg width="11" height="20" viewBox="0 0 11 20" fill="none" xmlns="http://www.w3.org/2000/svg">
<g id="Footer">
<path id="Vector" fill-rule="evenodd" clip-rule="evenodd" d="M8.0608 3.22965C8.6636 3.22965 9.2884 3.22965 9.8692 3.22965H10.1156V0.0968506C9.7944 0.0968506 9.4644 0.02205 9.1212 5.00213e-05C8.5052 5.00213e-05 7.8936 5.00213e-05 7.2776 5.00213e-05C6.3448 -0.00434998 5.4384 0.281648 4.6728 0.809648C3.8236 1.43445 3.2604 2.37165 3.1108 3.41445C3.0404 3.82805 3.0008 4.24605 2.9876 4.66845C2.9876 5.36805 2.9876 6.06765 2.9876 6.77165V7.12805H0V10.6173H2.9612V19.3821H6.6484V10.5821H9.6096L9.966 7.12805H6.5252C6.5252 7.12805 6.5252 5.39445 6.5252 4.66845C6.622 3.55965 7.238 3.25165 8.0608 3.22965Z" fill="#757575"/>
</g>
</svg>
