<svg width="25" height="25" viewBox="0 0 25 25" fill="none" xmlns="http://www.w3.org/2000/svg">
<g id="GeoAltFill">
<path id="Vector" d="M12.0625 23.8333C12.0625 23.8333 21 15.3636 21 8.9375C21 6.56713 20.0584 4.29384 18.3823 2.61773C16.7062 0.941627 14.4329 0 12.0625 0C9.69213 0 7.41884 0.941627 5.74273 2.61773C4.06663 4.29384 3.125 6.56713 3.125 8.9375C3.125 15.3636 12.0625 23.8333 12.0625 23.8333ZM12.0625 13.4062C10.8773 13.4062 9.74067 12.9354 8.90262 12.0974C8.06456 11.2593 7.59375 10.1227 7.59375 8.9375C7.59375 7.75231 8.06456 6.61567 8.90262 5.77762C9.74067 4.93956 10.8773 4.46875 12.0625 4.46875C13.2477 4.46875 14.3843 4.93956 15.2224 5.77762C16.0604 6.61567 16.5312 7.75231 16.5312 8.9375C16.5312 10.1227 16.0604 11.2593 15.2224 12.0974C14.3843 12.9354 13.2477 13.4062 12.0625 13.4062Z" fill="#008FFF"/>
</g>
</svg>
