<svg width="17" height="17" viewBox="0 0 17 17" fill="none" xmlns="http://www.w3.org/2000/svg">
<g id="Group 2">
<path id="Vector" d="M3.22887 13.7711C4.62686 15.1691 6.52294 15.9545 8.5 15.9545C10.4771 15.9545 12.3731 15.1691 13.7711 13.7711C15.1691 12.3731 15.9545 10.4771 15.9545 8.5C15.9545 6.52294 15.1691 4.62686 13.7711 3.22887C12.3731 1.83088 10.4771 1.0455 8.5 1.0455C6.52294 1.0455 4.62686 1.83088 3.22887 3.22887C1.83088 4.62686 1.0455 6.52294 1.0455 8.5C1.0455 10.4771 1.83088 12.3731 3.22887 13.7711ZM14.4984 14.4984C12.9075 16.0893 10.7498 16.983 8.5 16.983C6.25017 16.983 4.09248 16.0893 2.50161 14.4984C0.910742 12.9075 0.017 10.7498 0.017 8.5C0.017 6.25017 0.910742 4.09248 2.50161 2.50161C4.09248 0.910742 6.25017 0.017 8.5 0.017C10.7498 0.017 12.9075 0.910742 14.4984 2.50161C16.0893 4.09248 16.983 6.25017 16.983 8.5C16.983 10.7498 16.0893 12.9075 14.4984 14.4984Z" fill="white" stroke="black" stroke-width="0.034"/>
<g id="Vector_2">
<path d="M5.58336 6.14762C5.5819 6.18194 5.58748 6.21618 5.59975 6.24826C5.61202 6.28034 5.63072 6.30956 5.65471 6.33415C5.67869 6.35873 5.70745 6.37814 5.73922 6.3912C5.77098 6.40425 5.80508 6.41067 5.83942 6.41006H6.71598C6.86261 6.41006 6.97948 6.29 6.99861 6.14444C7.09423 5.44744 7.57236 4.93956 8.42448 4.93956C9.15336 4.93956 9.82061 5.304 9.82061 6.18056C9.82061 6.85525 9.42323 7.1655 8.79529 7.63725C8.08023 8.15681 7.51392 8.7635 7.55429 9.74844L7.55748 9.979C7.5586 10.0487 7.58707 10.1152 7.63677 10.1641C7.68646 10.213 7.75339 10.2404 7.82311 10.2404H8.68479C8.75524 10.2404 8.8228 10.2124 8.87262 10.1626C8.92243 10.1128 8.95042 10.0452 8.95042 9.97475V9.86319C8.95042 9.10031 9.24048 8.87825 10.0235 8.28431C10.6706 7.79237 11.3453 7.24625 11.3453 6.09981C11.3453 4.49438 9.98954 3.71875 8.50523 3.71875C7.15904 3.71875 5.68429 4.34562 5.58336 6.14762ZM7.23767 12.2708C7.23767 12.8371 7.68923 13.2557 8.31079 13.2557C8.95786 13.2557 9.40304 12.8371 9.40304 12.2708C9.40304 11.6843 8.95679 11.2721 8.30973 11.2721C7.68923 11.2721 7.23767 11.6843 7.23767 12.2708Z" fill="white"/>
<path d="M5.58336 6.14762C5.5819 6.18194 5.58748 6.21618 5.59975 6.24826C5.61202 6.28034 5.63072 6.30956 5.65471 6.33415C5.67869 6.35873 5.70745 6.37814 5.73922 6.3912C5.77098 6.40425 5.80508 6.41067 5.83942 6.41006H6.71598C6.86261 6.41006 6.97948 6.29 6.99861 6.14444C7.09423 5.44744 7.57236 4.93956 8.42448 4.93956C9.15336 4.93956 9.82061 5.304 9.82061 6.18056C9.82061 6.85525 9.42323 7.1655 8.79529 7.63725C8.08023 8.15681 7.51392 8.7635 7.55429 9.74844L7.55748 9.979C7.5586 10.0487 7.58707 10.1152 7.63677 10.1641C7.68646 10.213 7.75339 10.2404 7.82311 10.2404H8.68479C8.75524 10.2404 8.8228 10.2124 8.87262 10.1626C8.92243 10.1128 8.95042 10.0452 8.95042 9.97475V9.86319C8.95042 9.10031 9.24048 8.87825 10.0235 8.28431C10.6706 7.79237 11.3453 7.24625 11.3453 6.09981C11.3453 4.49438 9.98954 3.71875 8.50523 3.71875C7.15904 3.71875 5.68429 4.34562 5.58336 6.14762ZM7.23767 12.2708C7.23767 12.8371 7.68923 13.2557 8.31079 13.2557C8.95786 13.2557 9.40304 12.8371 9.40304 12.2708C9.40304 11.6843 8.95679 11.2721 8.30973 11.2721C7.68923 11.2721 7.23767 11.6843 7.23767 12.2708Z" stroke="black"/>
</g>
</g>
</svg>
