<?xml version="1.0" encoding="utf-8"?>
<!-- Generator: Adobe Illustrator 24.1.2, SVG Export Plug-In . SVG Version: 6.00 Build 0)  -->
<svg version="1.1" id="Camada_1" xmlns="http://www.w3.org/2000/svg" xmlns:xlink="http://www.w3.org/1999/xlink" width="300" height="60"
	 viewBox="0 0 334 60" style="enable-background:new 0 0 334 60;" xml:space="preserve">
<style type="text/css">
	.st0{fill:#FFFFFF;}
</style>
<path class="st0" d="M232.3,23.2c0.6-0.8,1.5-1.5,2.6-2.1c1.1-0.6,2.3-0.8,3.7-0.8c1.6,0,3,0.4,4.2,1.2c1.3,0.8,2.3,1.8,3,3.2
	c0.7,1.4,1.1,3,1.1,4.7c0,1.8-0.4,3.4-1.1,4.8c-0.7,1.4-1.7,2.5-3,3.3c-1.3,0.8-2.7,1.2-4.2,1.2c-1.4,0-2.6-0.3-3.6-0.8
	c-1.1-0.6-1.9-1.2-2.6-2.1v11h-3.7V20.6h3.7V23.2z M243.1,29.4c0-1.2-0.3-2.3-0.8-3.2c-0.5-0.9-1.2-1.6-2-2
	c-0.8-0.5-1.7-0.7-2.6-0.7c-0.9,0-1.8,0.2-2.6,0.7c-0.8,0.5-1.5,1.2-2,2.1c-0.5,0.9-0.7,2-0.7,3.2c0,1.2,0.2,2.3,0.7,3.2
	c0.5,0.9,1.2,1.6,2,2.1c0.8,0.5,1.7,0.7,2.6,0.7c0.9,0,1.8-0.2,2.6-0.7c0.8-0.5,1.5-1.2,2-2.1C242.8,31.7,243.1,30.7,243.1,29.4z"/>
<path class="st0" d="M205.5,29.4c0-1.8,0.4-3.4,1.1-4.7c0.8-1.4,1.8-2.4,3-3.2c1.3-0.8,2.7-1.2,4.3-1.2c1.4,0,2.6,0.3,3.6,0.8
	c1.1,0.5,1.9,1.2,2.5,2v-2.6h3.7v17.8H220v-2.6c-0.6,0.8-1.5,1.5-2.6,2.1c-1.1,0.6-2.3,0.8-3.7,0.8c-1.5,0-2.9-0.4-4.2-1.2
	c-1.3-0.8-2.3-1.9-3-3.3C205.8,32.8,205.5,31.2,205.5,29.4z M220,29.5c0-1.2-0.3-2.3-0.8-3.2c-0.5-0.9-1.2-1.6-2-2.1
	c-0.8-0.5-1.7-0.7-2.6-0.7c-0.9,0-1.8,0.2-2.6,0.7c-0.8,0.5-1.5,1.1-2,2c-0.5,0.9-0.7,1.9-0.7,3.2c0,1.2,0.2,2.3,0.7,3.2
	c0.5,0.9,1.2,1.6,2,2.1c0.8,0.5,1.7,0.7,2.6,0.7c0.9,0,1.8-0.2,2.6-0.7c0.8-0.5,1.5-1.2,2-2.1C219.8,31.8,220,30.7,220,29.5z"/>
<path class="st0" d="M194.7,20.3c1.4,0,2.6,0.3,3.7,0.9c1.1,0.6,2,1.4,2.6,2.6c0.6,1.1,1,2.5,1,4.1v10.5h-3.6v-9.9
	c0-1.6-0.4-2.8-1.2-3.6c-0.8-0.9-1.9-1.3-3.3-1.3c-1.4,0-2.5,0.4-3.3,1.3c-0.8,0.8-1.2,2.1-1.2,3.6v9.9h-3.7v-9.9
	c0-1.6-0.4-2.8-1.2-3.6c-0.8-0.9-1.9-1.3-3.3-1.3c-1.4,0-2.5,0.4-3.3,1.3c-0.8,0.8-1.2,2.1-1.2,3.6v9.9h-3.7V20.6h3.7v2
	c0.6-0.7,1.4-1.3,2.3-1.7c0.9-0.4,1.9-0.6,3-0.6c1.4,0,2.7,0.3,3.8,0.9c1.1,0.6,2,1.5,2.6,2.6c0.5-1.1,1.4-1.9,2.5-2.6
	C192.1,20.6,193.3,20.3,194.7,20.3z"/>
<path class="st0" d="M161.3,20.3c1.4,0,2.6,0.3,3.6,0.9c1.1,0.6,1.9,1.4,2.5,2.6c0.6,1.1,0.9,2.5,0.9,4.1v10.5h-3.6v-9.9
	c0-1.6-0.4-2.8-1.2-3.7c-0.8-0.9-1.9-1.3-3.3-1.3c-1.4,0-2.5,0.4-3.3,1.3c-0.8,0.8-1.2,2.1-1.2,3.7v9.9h-3.7V14.5h3.7v8.2
	c0.6-0.8,1.4-1.3,2.4-1.7C159.1,20.5,160.2,20.3,161.3,20.3z"/>
<path class="st0" d="M144.4,23.6v9.9c0,0.7,0.2,1.2,0.5,1.5c0.3,0.3,0.9,0.4,1.6,0.4h2.3v3.1h-2.9c-1.7,0-2.9-0.4-3.8-1.2
	c-0.9-0.8-1.3-2-1.3-3.8v-9.9h-2.1v-3h2.1v-4.4h3.7v4.4h4.3v3H144.4z"/>
<path class="st0" d="M135.3,14.5v23.9h-3.7V14.5H135.3z"/>
<path class="st0" d="M108.5,29.4c0-1.8,0.4-3.4,1.1-4.7c0.8-1.4,1.8-2.4,3-3.2c1.3-0.8,2.7-1.2,4.3-1.2c1.4,0,2.6,0.3,3.6,0.8
	c1.1,0.5,1.9,1.2,2.5,2v-2.6h3.7v17.8h-3.7v-2.6c-0.6,0.8-1.5,1.5-2.6,2.1c-1.1,0.6-2.3,0.8-3.7,0.8c-1.5,0-2.9-0.4-4.2-1.2
	c-1.3-0.8-2.3-1.9-3-3.3C108.9,32.8,108.5,31.2,108.5,29.4z M123.1,29.5c0-1.2-0.3-2.3-0.8-3.2c-0.5-0.9-1.2-1.6-2-2.1
	c-0.8-0.5-1.7-0.7-2.6-0.7c-0.9,0-1.8,0.2-2.6,0.7c-0.8,0.5-1.5,1.1-2,2c-0.5,0.9-0.7,1.9-0.7,3.2c0,1.2,0.2,2.3,0.7,3.2
	c0.5,0.9,1.2,1.6,2,2.1c0.8,0.5,1.7,0.7,2.6,0.7c0.9,0,1.8-0.2,2.6-0.7c0.8-0.5,1.5-1.2,2-2.1C122.8,31.8,123.1,30.7,123.1,29.5z"/>
<path class="st0" d="M106.1,29.1c0,0.7,0,1.3-0.1,1.8H92.4c0.1,1.4,0.6,2.6,1.6,3.4c0.9,0.9,2.1,1.3,3.5,1.3c2,0,3.4-0.8,4.2-2.5h4
	c-0.5,1.6-1.5,3-2.9,4c-1.4,1-3.1,1.6-5.2,1.6c-1.7,0-3.2-0.4-4.6-1.1c-1.3-0.8-2.4-1.9-3.2-3.2c-0.8-1.4-1.1-3-1.1-4.8
	s0.4-3.4,1.1-4.8c0.8-1.4,1.8-2.5,3.1-3.2c1.4-0.8,2.9-1.1,4.7-1.1c1.7,0,3.2,0.4,4.5,1.1c1.3,0.7,2.3,1.8,3.1,3.1
	C105.7,25.8,106.1,27.3,106.1,29.1z M102.2,27.9c0-1.4-0.5-2.4-1.5-3.3c-0.9-0.8-2.1-1.2-3.5-1.2c-1.3,0-2.4,0.4-3.3,1.2
	c-0.9,0.8-1.4,1.9-1.6,3.3H102.2z"/>
<path class="st0" d="M84.9,16v22.4h-3.7v-9.8H70.7v9.8H67V16h3.7v9.6h10.6V16H84.9z"/>
<path class="st0" d="M19.2,11.5V26h14.4V11.5h9.6V26h10.1V5.3c0-2.1-1.7-3.8-3.8-3.8H6.3C2.8,1.5,0,4.3,0,7.8v3.7V26h9.8V11.5H19.2z
	"/>
<path class="st0" d="M34.1,48.5V34H19.7v14.4h-9.6V34H0l0,20.7c0,2.1,1.7,3.8,3.8,3.8H47c3.5,0,6.3-2.8,6.3-6.3v-3.7V34h-9.8v14.4
	H34.1z"/>
</svg>
