<svg width="112" height="34" viewBox="0 0 112 34" fill="none" xmlns="http://www.w3.org/2000/svg">
<g id="Group">
<g id="Group_2">
<path id="Vector" d="M107.83 0.708064C109.718 0.708064 111.371 2.203 111.371 4.24871V29.0332C111.371 30.9216 109.876 32.5739 107.83 32.5739H4.36443C2.47609 32.5739 0.823784 31.079 0.823784 29.0332V4.24871C0.823784 2.36037 2.31872 0.708064 4.36443 0.708064H107.83ZM107.83 0.0786133H4.36443C2.08268 0.0786133 0.194336 1.96696 0.194336 4.24871V29.0332C0.194336 31.315 2.08268 33.2033 4.36443 33.2033H107.83C110.112 33.2033 112 31.315 112 29.0332V4.24871C111.921 1.96696 110.112 0.0786133 107.83 0.0786133Z" fill="#757575"/>
<path id="Vector_2" d="M39.5349 8.49798C39.5349 9.12743 39.3775 9.75687 38.9054 10.1503C38.4333 10.6224 37.8825 10.9371 37.0957 10.9371C36.3089 10.9371 35.7582 10.6224 35.2861 10.1503C34.814 9.67819 34.4993 9.04874 34.4993 8.34061C34.4993 7.5538 34.814 7.00304 35.2861 6.53095C35.7582 6.05886 36.3876 5.74414 37.0957 5.74414C37.4891 5.74414 37.7252 5.82282 38.1186 5.9015C38.4333 5.98018 38.6694 6.21622 38.9054 6.45227L38.4333 6.92436C38.1186 6.53095 37.6465 6.37359 37.0957 6.37359C36.545 6.37359 36.1516 6.53095 35.7582 6.92436C35.3648 7.31776 35.2074 7.78984 35.2074 8.34061C35.2074 8.89138 35.3648 9.36347 35.7582 9.75687C36.1516 10.1503 36.6237 10.3076 37.0957 10.3076C37.6465 10.3076 38.1186 10.1503 38.512 9.75687C38.8267 9.44215 38.9054 9.2061 38.9054 8.73402H37.0957V8.10457H39.4562C39.5349 8.34062 39.5349 8.4193 39.5349 8.49798ZM43.3115 6.53095H41.0298V8.18325H43.1542V8.65534H41.0298V10.229H43.3115V10.7797H40.4003V5.82282H43.3115V6.53095ZM46.0654 10.7797H45.4359V6.53095H44.0197V5.9015H47.403V6.45227H45.9867V10.8584H46.0654V10.7797ZM49.8421 10.7797V5.82282H50.4715V10.7797H49.8421ZM53.3827 10.7797H52.7533V6.53095H51.4157V5.9015H54.799V6.45227H53.3827V10.7797ZM61.2508 10.229C60.7787 10.701 60.1493 11.0158 59.4412 11.0158C58.6544 11.0158 58.1036 10.701 57.6315 10.229C57.1594 9.75687 56.8447 9.12742 56.8447 8.41929C56.8447 7.78984 57.1594 7.08172 57.6315 6.60963C58.0249 6.05886 58.6544 5.74414 59.3625 5.74414C60.1493 5.74414 60.7001 6.05886 61.1721 6.53095C61.6442 7.00304 61.959 7.63248 61.959 8.34061C61.959 9.04874 61.7229 9.59951 61.2508 10.229ZM58.0249 9.75687C58.4183 10.1503 58.8904 10.3076 59.3625 10.3076C59.8346 10.3076 60.3067 10.1503 60.7001 9.75687C61.0935 9.36347 61.2508 8.89138 61.2508 8.34061C61.2508 7.78984 61.0935 7.31776 60.7001 6.92436C60.3067 6.53095 59.8346 6.37359 59.3625 6.37359C58.8904 6.37359 58.4183 6.53095 58.0249 6.92436C57.6315 7.31776 57.4741 7.78984 57.4741 8.34061C57.4741 8.89138 57.6315 9.36347 58.0249 9.75687ZM62.9031 10.7797V5.82282H63.6899L66.0504 9.75687V5.82282H66.6798V10.7797H66.0504L63.4539 6.68831V10.7797H62.9031Z" fill="#757575" stroke="#4F5362" stroke-width="0.189857" stroke-miterlimit="10"/>
<path id="Vector_3" d="M56.6874 18.0967C54.7203 18.0967 53.1467 19.5916 53.1467 21.6373C53.1467 23.6043 54.7203 25.1779 56.6874 25.1779C58.6544 25.1779 60.228 23.683 60.228 21.6373C60.228 19.5129 58.5757 18.0967 56.6874 18.0967ZM56.6874 23.683C55.6645 23.683 54.7203 22.8175 54.7203 21.5586C54.7203 20.2997 55.6645 19.4342 56.6874 19.4342C57.7102 19.4342 58.6544 20.2997 58.6544 21.5586C58.7331 22.8175 57.7102 23.683 56.6874 23.683ZM49.0553 18.0967C47.0883 18.0967 45.5146 19.5916 45.5146 21.6373C45.5146 23.6043 47.0883 25.1779 49.0553 25.1779C51.0223 25.1779 52.5959 23.683 52.5959 21.6373C52.5173 19.5129 50.9436 18.0967 49.0553 18.0967ZM49.0553 23.683C48.0324 23.683 47.0883 22.8175 47.0883 21.5586C47.0883 20.2997 48.0324 19.4342 49.0553 19.4342C50.0781 19.4342 51.0223 20.2997 51.0223 21.5586C51.0223 22.8175 50.0781 23.683 49.0553 23.683ZM39.8496 19.1195V20.6144H43.4689C43.3903 21.4799 43.0755 22.0307 42.6034 22.5028C42.1314 22.9749 41.2659 23.6043 39.8496 23.6043C37.6465 23.6043 35.9942 21.7947 35.9942 19.5916C35.9942 17.3885 37.7252 15.5789 39.8496 15.5789C41.1085 15.5789 41.974 16.0509 42.5248 16.6017L43.5476 15.5789C42.6821 14.8707 41.4232 14.1626 39.6922 14.1626C36.6237 14.1626 34.1846 16.6017 34.1846 19.6703C34.1846 22.7388 36.781 25.1779 39.6922 25.1779C41.2659 25.1779 42.5248 24.6272 43.4689 23.683C44.4131 22.7388 44.8065 21.3226 44.8065 20.1424C44.8065 19.749 44.8065 19.5129 44.7278 19.1982L39.8496 19.1195ZM77.3018 20.2997C76.9871 19.5129 76.2003 18.0967 74.3906 18.0967C72.5809 18.0967 71.086 19.5129 71.086 21.6373C71.086 23.6043 72.5809 25.1779 74.6266 25.1779C76.2003 25.1779 77.2231 24.2338 77.5378 23.683L76.2789 22.8962C75.8855 23.447 75.3348 23.8404 74.548 23.8404C73.7612 23.8404 73.2104 23.447 72.817 22.8175L77.5378 20.8505L77.3018 20.2997ZM72.5809 21.4799C72.5809 20.1424 73.6038 19.3555 74.3906 19.3555C74.9414 19.3555 75.4921 19.6703 75.7282 20.1424L72.5809 21.4799ZM68.6469 24.9419H70.1418V14.556H68.6469V24.9419ZM66.2078 18.8835C65.8144 18.4901 65.1849 18.0967 64.3194 18.0967C62.5098 18.0967 60.9361 19.5916 60.9361 21.6373C60.9361 23.6043 62.5098 25.1779 64.3194 25.1779C65.1849 25.1779 65.8144 24.7845 66.2078 24.3911H66.2864V24.8632C66.2864 26.2008 65.4996 26.9876 64.3981 26.9876C63.4539 26.9876 62.9032 26.3582 62.5884 25.7287L61.2509 26.2795C61.6443 27.2237 62.6671 28.4039 64.3981 28.4039C66.2078 28.4039 67.7027 27.381 67.7027 24.7059V18.3327H66.2864L66.2078 18.8835ZM64.3981 23.683C63.3752 23.683 62.4311 22.8175 62.4311 21.5586C62.4311 20.2997 63.2966 19.3555 64.3981 19.3555C65.421 19.3555 66.2864 20.2997 66.2864 21.5586C66.2864 22.8175 65.421 23.683 64.3981 23.683ZM84.6191 14.556H80.9211V24.9419H82.4161V20.9292H84.6191C86.3501 20.9292 88.0024 19.6703 88.0024 17.7032C88.0024 15.7362 86.2714 14.556 84.6191 14.556ZM84.6191 19.5129H82.4161V15.9723H84.6191C85.7207 15.9723 86.4288 16.9164 86.4288 17.7819C86.3501 18.5687 85.7207 19.5129 84.6191 19.5129ZM94.1395 18.0967C93.038 18.0967 91.8578 18.5687 91.3857 19.749L92.7233 20.2997C93.038 19.749 93.5888 19.5129 94.1395 19.5129C94.9264 19.5129 95.7132 19.985 95.7132 20.8505V20.9292C95.3984 20.7718 94.8477 20.5358 94.1395 20.5358C92.6446 20.5358 91.2283 21.4013 91.2283 22.8962C91.2283 24.3125 92.4872 25.1779 93.8248 25.1779C94.8477 25.1779 95.3984 24.7059 95.7919 24.1551H95.8705V24.9419H97.3655V20.9292C97.2868 19.0408 95.8705 18.0967 94.1395 18.0967ZM93.9822 23.683C93.5101 23.683 92.7233 23.3683 92.7233 22.8175C92.7233 22.0307 93.5888 21.716 94.2969 21.716C94.9263 21.716 95.3198 21.8733 95.7132 22.1094C95.7132 23.0536 94.8477 23.683 93.9822 23.683ZM102.716 18.254L100.906 22.7388H100.827L99.0178 18.254H97.2868L100.041 24.5485L98.467 28.0891H100.041L104.289 18.3327H102.716V18.254ZM88.8679 24.9419H90.3629V14.556H88.8679V24.9419Z" fill="#757575"/>
</g>
<path id="Vector_4" d="M8.92795 6.37354C8.77059 6.5309 8.53455 7.00298 8.53455 7.47507V25.7291C8.53455 26.2012 8.69191 26.6732 8.92795 26.8306L9.00663 26.9093L19.2352 16.6808V16.5234L8.92795 6.37354Z" fill="url(#paint0_linear_252_459)"/>
<path id="Vector_5" d="M22.6973 20.1427L19.314 16.7594V16.602L22.6973 13.2188H22.7759L26.8673 15.5005C27.9689 16.1299 27.9689 17.2315 26.8673 17.8609L22.6973 20.1427Z" fill="url(#paint1_linear_252_459)"/>
<path id="Vector_6" d="M22.7758 20.0636L19.2352 16.5229L8.92798 26.8302C9.32138 27.2236 9.95083 27.3023 10.659 26.9088L22.7758 20.0636Z" fill="url(#paint2_linear_252_459)"/>
<path id="Vector_7" d="M22.7758 13.14L10.659 6.21607C10.0295 5.82266 9.32138 5.82266 8.92798 6.29475L19.2352 16.602L22.7758 13.14Z" fill="url(#paint3_linear_252_459)"/>
<path id="Vector_8" opacity="0.2" d="M22.6971 20.064L10.6589 26.9092C10.0294 27.3026 9.4 27.3026 9.08527 26.9092L9.00659 26.9879L9.08527 27.0666C9.47868 27.46 10.0294 27.46 10.6589 27.0666L22.6971 20.064Z" fill="black"/>
<path id="Vector_9" opacity="0.12" d="M8.92795 26.8301C8.77059 26.5154 8.53455 26.2007 8.53455 25.7286V25.8073C8.53455 26.2793 8.69191 26.7514 8.92795 26.9088V26.8301ZM26.8672 17.7031L22.6971 20.0635L22.7758 20.1422L26.8672 17.8605C27.418 17.5457 27.7327 17.0736 27.7327 16.6016C27.654 17.0736 27.3393 17.3884 26.8672 17.7031Z" fill="black"/>
<path id="Vector_10" opacity="0.25" d="M10.659 6.45188L26.7886 15.6576C27.3394 15.9723 27.6541 16.287 27.6541 16.6804C27.6541 16.2083 27.3394 15.8149 26.7886 15.4215L10.659 6.21584C9.55744 5.58639 8.61327 6.13716 8.61327 7.47474V7.55342C8.53459 6.21584 9.55744 5.74375 10.659 6.45188Z" fill="white"/>
</g>
<defs>
<linearGradient id="paint0_linear_252_459" x1="18.3777" y1="7.28828" x2="4.49962" y2="21.1664" gradientUnits="userSpaceOnUse">
<stop stop-color="#00A0FF"/>
<stop offset="0.007" stop-color="#00A1FF"/>
<stop offset="0.26" stop-color="#00BEFF"/>
<stop offset="0.512" stop-color="#00D2FF"/>
<stop offset="0.76" stop-color="#00DFFF"/>
<stop offset="1" stop-color="#00E3FF"/>
</linearGradient>
<linearGradient id="paint1_linear_252_459" x1="28.3305" y1="16.6686" x2="8.32199" y2="16.6686" gradientUnits="userSpaceOnUse">
<stop stop-color="#FFE000"/>
<stop offset="0.409" stop-color="#FFBD00"/>
<stop offset="0.775" stop-color="#FFA500"/>
<stop offset="1" stop-color="#FF9C00"/>
</linearGradient>
<linearGradient id="paint2_linear_252_459" x1="20.8574" y1="18.4997" x2="2.03804" y2="37.3191" gradientUnits="userSpaceOnUse">
<stop stop-color="#FF3A44"/>
<stop offset="1" stop-color="#C31162"/>
</linearGradient>
<linearGradient id="paint3_linear_252_459" x1="6.3677" y1="0.251492" x2="14.7711" y2="8.65589" gradientUnits="userSpaceOnUse">
<stop stop-color="#32A071"/>
<stop offset="0.069" stop-color="#2DA771"/>
<stop offset="0.476" stop-color="#15CF74"/>
<stop offset="0.801" stop-color="#06E775"/>
<stop offset="1" stop-color="#00F076"/>
</linearGradient>
</defs>
</svg>
