<svg width="24" height="23" viewBox="0 0 24 23" fill="none" xmlns="http://www.w3.org/2000/svg">
<g id="Group 9">
<path id="Vector" d="M1.71422 11.1438C1.71396 9.48867 2.14941 7.86266 2.9768 6.42919C3.80418 4.99573 4.99434 3.80534 6.42764 2.97767C7.86094 2.15001 9.48687 1.71424 11.142 1.71418C12.7971 1.71411 14.423 2.14975 15.8564 2.9773C16.0532 3.08917 16.2862 3.11867 16.5046 3.05937C16.723 3.00007 16.9091 2.85678 17.0223 2.66077C17.1355 2.46476 17.1665 2.23195 17.1087 2.01314C17.0508 1.79432 16.9088 1.60727 16.7135 1.4928C14.5894 0.266431 12.1199 -0.224792 9.68815 0.0953166C7.25639 0.415425 4.99819 1.52898 3.26378 3.26327C1.52937 4.99757 0.415675 7.2557 0.0954099 9.68744C-0.224855 12.1192 0.26621 14.5887 1.49245 16.7129C2.71868 18.8371 4.61157 20.4974 6.87753 21.4362C9.1435 22.375 11.6559 22.5399 14.0252 21.9053C16.3944 21.2707 18.488 19.8721 19.9814 17.9264C21.4747 15.9806 22.2844 13.5965 22.2847 11.1438C22.2847 10.9165 22.1944 10.6984 22.0336 10.5377C21.8729 10.377 21.6549 10.2867 21.4276 10.2867C21.2002 10.2867 20.9822 10.377 20.8215 10.5377C20.6608 10.6984 20.5705 10.9165 20.5705 11.1438C20.5705 13.6443 19.5771 16.0423 17.809 17.8105C16.0409 19.5786 13.6428 20.5719 11.1423 20.5719C8.64185 20.5719 6.24377 19.5786 4.47565 17.8105C2.70754 16.0423 1.71422 13.6443 1.71422 11.1438Z" fill="#008FFF"/>
<path id="Vector_2" d="M23.7487 2.17958C23.8283 2.09989 23.8916 2.00529 23.9347 1.90117C23.9778 1.79705 24 1.68545 24 1.57275C24 1.46006 23.9778 1.34846 23.9347 1.24434C23.8916 1.14022 23.8283 1.04562 23.7487 0.965925C23.669 0.886236 23.5744 0.823022 23.4702 0.779895C23.3661 0.736767 23.2545 0.714569 23.1418 0.714569C23.0291 0.714569 22.9175 0.736767 22.8134 0.779895C22.7093 0.823022 22.6147 0.886236 22.535 0.965925L11.1424 12.3602L6.60662 7.82274C6.52693 7.74305 6.43232 7.67984 6.3282 7.63671C6.22408 7.59358 6.11249 7.57138 5.99979 7.57138C5.88709 7.57138 5.77549 7.59358 5.67137 7.63671C5.56725 7.67984 5.47265 7.74305 5.39296 7.82274C5.31327 7.90243 5.25005 7.99704 5.20693 8.10116C5.1638 8.20528 5.1416 8.31687 5.1416 8.42957C5.1416 8.54227 5.1638 8.65386 5.20693 8.75798C5.25005 8.8621 5.31327 8.95671 5.39296 9.0364L10.5356 14.179C10.6152 14.2588 10.7098 14.3222 10.8139 14.3654C10.918 14.4086 11.0297 14.4308 11.1424 14.4308C11.2551 14.4308 11.3668 14.4086 11.4709 14.3654C11.575 14.3222 11.6696 14.2588 11.7492 14.179L23.7487 2.17958Z" fill="#008FFF"/>
</g>
</svg>
