<svg width="112" height="34" viewBox="0 0 112 34" fill="none" xmlns="http://www.w3.org/2000/svg">
<g id="Group">
<g id="Group_2">
<g id="XMLID_22_">
<g id="XMLID_23_">
<path id="XMLID_25_" d="M20.3784 16.8374C20.3784 14.5557 22.2667 13.3754 22.3454 13.3754C21.3225 11.8805 19.5916 11.5658 19.0408 11.5658C17.6245 11.4084 16.287 12.4313 15.6575 12.4313C14.8707 12.4313 13.8478 11.5658 12.589 11.6445C11.094 11.6445 9.67775 12.5099 8.89094 13.9262C7.31732 16.68 8.49754 20.7715 9.99248 23.0532C10.7793 24.2334 11.7235 25.335 12.825 25.335C13.9265 25.2563 14.3986 24.5482 15.7362 24.5482C17.0738 24.5482 17.5459 25.335 18.6474 25.1776C19.9063 25.1776 20.6144 23.9974 21.4012 22.9745C22.2667 21.7156 22.6601 20.5354 22.6601 20.3781C22.7388 20.5354 20.3784 19.5912 20.3784 16.8374Z" fill="#4F5362"/>
<path id="XMLID_24_" d="M18.0967 10.1494C18.7262 9.3626 19.1196 8.33975 19.0409 7.31689C18.1754 7.31689 17.0739 7.94634 16.3657 8.65447C15.815 9.28392 15.3429 10.4641 15.4216 11.4083C16.4444 11.487 17.546 10.9362 18.0967 10.1494Z" fill="#4F5362"/>
</g>
</g>
<path id="Vector" d="M34.8557 22.5813H31.0003L30.0562 25.3351H28.3252L32.1019 15.0279H33.8329L37.5309 25.3351H35.7999L34.8557 22.5813ZM31.3151 21.2437H34.4623L32.9674 16.6802L31.3151 21.2437ZM45.5563 21.6371C45.5563 23.9976 44.2974 25.4138 42.4091 25.4138C41.3862 25.4138 40.5208 24.9417 40.0487 24.0762V27.7742H38.5537V17.7817H40.0487V19.0406C40.5208 18.2538 41.3862 17.7031 42.4091 17.7031C44.2188 17.7031 45.5563 19.198 45.5563 21.6371ZM43.9827 21.6371C43.9827 20.1422 43.1959 19.0406 42.0157 19.0406C40.9142 19.0406 40.0487 20.0635 40.0487 21.6371C40.0487 23.2107 40.8355 24.2336 42.0157 24.2336C43.1959 24.0762 43.9827 23.1321 43.9827 21.6371ZM53.8179 21.6371C53.8179 23.9976 52.559 25.4138 50.6706 25.4138C49.6478 25.4138 48.7823 24.9417 48.3102 24.0762V27.7742H46.8152V17.7817H48.2315V19.0406C48.7036 18.2538 49.5691 17.7031 50.5919 17.7031C52.4803 17.7031 53.8179 19.198 53.8179 21.6371ZM52.1656 21.6371C52.1656 20.1422 51.3787 19.0406 50.1985 19.0406C49.097 19.0406 48.2315 20.0635 48.2315 21.6371C48.2315 23.2107 49.0183 24.2336 50.1985 24.2336C51.4574 24.0762 52.1656 23.1321 52.1656 21.6371ZM59.1682 22.4239C59.2468 23.4468 60.2697 24.1549 61.6073 24.1549C62.9449 24.1549 63.889 23.5255 63.889 22.5026C63.889 21.7158 63.3383 21.2437 62.0007 20.8503L60.6631 20.5356C58.7748 20.0635 57.9093 19.198 57.9093 17.7817C57.9093 15.9721 59.4042 14.7132 61.6073 14.7132C63.8103 14.7132 65.3053 15.9721 65.3053 17.7817H63.8104C63.7317 16.7589 62.8662 16.1294 61.6073 16.1294C60.3484 16.1294 59.5616 16.7589 59.5616 17.6244C59.5616 18.4112 60.1123 18.8046 61.4499 19.1193L62.5515 19.434C64.5972 19.9061 65.4627 20.7716 65.4627 22.2666C65.4627 24.1549 63.9677 25.4138 61.4499 25.4138C59.1682 25.4138 57.6732 24.2336 57.5945 22.3452C57.6732 22.5813 59.1682 22.4239 59.1682 22.4239ZM68.8459 16.0508V17.8604H70.2622V19.0406H68.8459V23.2107C68.8459 23.8402 69.1607 24.1549 69.7901 24.1549H70.2622V25.4138C70.1048 25.4138 69.7901 25.4925 69.3967 25.4925C67.9018 25.4925 67.351 24.9417 67.351 23.5255V19.0406H66.2495V17.7817H67.2723V15.9721L68.8459 16.0508ZM71.049 21.6371C71.049 19.2767 72.4653 17.8604 74.5897 17.8604C76.7927 17.8604 78.1303 19.3554 78.1303 21.6371C78.1303 23.9976 76.714 25.4138 74.5897 25.4138C72.4653 25.4138 71.049 23.9976 71.049 21.6371ZM76.6354 21.6371C76.6354 19.9848 75.8485 19.0406 74.6683 19.0406C73.4094 19.0406 72.7013 19.9848 72.7013 21.6371C72.7013 23.2894 73.4881 24.2336 74.6683 24.2336C75.8485 24.1549 76.6354 23.2107 76.6354 21.6371ZM79.4679 17.7817H80.8841V19.0406C81.0415 18.1752 81.8283 17.7031 82.6938 17.7031C82.8512 17.7031 83.0872 17.7031 83.2446 17.7817V19.198C83.1659 19.1193 82.8512 19.1193 82.6151 19.1193C81.671 19.1193 81.0415 19.7488 81.0415 20.8503V25.3351H79.5466C79.4679 25.3351 79.4679 17.7817 79.4679 17.7817ZM90.4045 23.1321C90.2472 24.4696 88.9096 25.4138 87.1786 25.4138C84.9756 25.4138 83.638 23.9976 83.638 21.6371C83.638 19.2767 84.9756 17.7031 87.1786 17.7031C89.2243 17.7031 90.5619 19.1193 90.5619 21.4011V21.9518H85.1329V22.1092C85.1329 23.4468 85.9197 24.2336 87.0999 24.2336C87.9654 24.2336 88.5949 23.8402 88.8309 23.2107C88.8309 23.1321 90.4045 23.1321 90.4045 23.1321ZM85.1329 20.8503H88.9096C88.9096 19.6701 88.1228 18.962 87.0999 18.962C85.9984 18.962 85.2903 19.6701 85.1329 20.8503ZM31.1577 7.23848C32.574 7.23848 33.5181 8.10398 33.5181 9.6776C33.5181 11.2512 32.6527 12.1167 31.1577 12.1167H29.348V7.1598H31.1577V7.23848ZM30.2135 11.4873H31.1577C32.1806 11.4873 32.7313 10.8578 32.7313 9.6776C32.7313 8.49738 32.1806 7.86793 31.1577 7.86793H30.2135V11.4873ZM34.3836 10.3857C34.3836 9.12683 35.0131 8.49738 36.1933 8.49738C37.2162 8.49738 38.003 9.28419 38.003 10.3857C38.003 11.6446 37.3735 12.2741 36.1933 12.2741C35.0131 12.2741 34.3836 11.4873 34.3836 10.3857ZM37.1375 10.3857C37.1375 9.52023 36.7441 9.04815 36.1146 9.04815C35.4852 9.04815 35.0918 9.52023 35.0918 10.3857C35.0918 11.2512 35.4852 11.7233 36.1146 11.7233C36.7441 11.5659 37.1375 11.0939 37.1375 10.3857ZM42.4878 12.1954H41.701L40.9142 9.44156H40.8355L40.0487 12.1954H39.2619L38.239 8.49738H39.0258L39.6553 11.3299H39.7339L40.5208 8.49738H41.1502L41.937 11.3299H42.0157L42.6451 8.49738H43.432C43.5893 8.49738 42.4878 12.1954 42.4878 12.1954ZM44.4548 8.49738H45.0843V9.04815H45.1629C45.3203 8.65475 45.7137 8.4187 46.2645 8.4187C47.13 8.4187 47.6021 8.89079 47.6021 9.83496V12.1954H46.8152V9.91364C46.8152 9.36287 46.5005 9.04815 46.0284 9.04815C45.4777 9.04815 45.1629 9.44155 45.1629 9.99232V12.1954H44.2974C44.4548 12.1954 44.4548 8.49738 44.4548 8.49738ZM48.7823 7.00244H49.5691V12.2741H48.7823V7.00244ZM50.5133 10.3857C50.5133 9.12683 51.1427 8.49738 52.3229 8.49738C53.3458 8.49738 54.1326 9.28419 54.1326 10.3857C54.1326 11.6446 53.5031 12.2741 52.3229 12.2741C51.2214 12.2741 50.5133 11.4873 50.5133 10.3857ZM53.3458 10.3857C53.3458 9.52023 52.9524 9.04815 52.3229 9.04815C51.6935 9.04815 51.3001 9.52023 51.3001 10.3857C51.3001 11.2512 51.6935 11.7233 52.3229 11.7233C52.9524 11.5659 53.3458 11.0939 53.3458 10.3857ZM54.8407 11.0939C54.8407 10.4644 55.3128 10.071 56.257 9.91364L57.2798 9.83496V9.52024C57.2798 9.12683 56.9651 8.96947 56.493 8.96947C56.0996 8.96947 55.8636 9.12683 55.7062 9.36287H54.9194C54.9981 8.73342 55.5488 8.34002 56.4143 8.34002C57.3585 8.34002 57.8306 8.81211 57.8306 9.59892V12.1954H57.2011V11.6446H57.1225C56.9651 12.038 56.493 12.1954 56.0209 12.1954C55.3128 12.2741 54.8407 11.802 54.8407 11.0939ZM57.2011 10.8578V10.5431L56.257 10.6218C55.7849 10.6218 55.4702 10.7791 55.4702 11.1725C55.4702 11.5659 55.7849 11.7233 56.0996 11.7233C56.8077 11.5659 57.2011 11.3299 57.2011 10.8578ZM58.9321 10.3857C58.9321 9.20551 59.4829 8.49738 60.4271 8.49738C60.8992 8.49738 61.3712 8.81211 61.5286 9.12683H61.6073V7.00244H62.3941V12.2741H61.7646V11.7233H61.686C61.5286 12.1167 61.0565 12.3528 60.5844 12.3528C59.4829 12.2741 58.9321 11.4873 58.9321 10.3857ZM59.6403 10.3857C59.6403 11.1725 60.0337 11.6446 60.6631 11.6446C61.2926 11.6446 61.686 11.1725 61.686 10.3857C61.686 9.59892 61.2926 9.12683 60.6631 9.12683C60.0337 9.04815 59.6403 9.52023 59.6403 10.3857ZM65.4627 10.3857C65.4627 9.12683 66.0921 8.49738 67.2723 8.49738C68.2952 8.49738 69.082 9.28419 69.082 10.3857C69.082 11.6446 68.4525 12.2741 67.2723 12.2741C66.0921 12.2741 65.4627 11.4873 65.4627 10.3857ZM68.2165 10.3857C68.2165 9.52023 67.8231 9.04815 67.1936 9.04815C66.5642 9.04815 66.1708 9.52023 66.1708 10.3857C66.1708 11.2512 66.5642 11.7233 67.1936 11.7233C67.8231 11.5659 68.2165 11.0939 68.2165 10.3857ZM69.8688 8.49738H70.4982V9.04815H70.5769C70.7343 8.65475 71.1277 8.4187 71.6785 8.4187C72.5439 8.4187 73.016 8.89079 73.016 9.83496V12.1954H72.2292V9.91364C72.2292 9.36287 71.9145 9.04815 71.4424 9.04815C70.8916 9.04815 70.5769 9.44155 70.5769 9.99232V12.1954H69.7901L69.8688 8.49738ZM77.1861 7.47453V8.4187H78.0516V9.04815H77.1861V10.9365C77.1861 11.3299 77.3435 11.4873 77.7369 11.4873H78.0516V12.038H77.6582C76.7927 12.038 76.5567 11.7233 76.5567 11.0152V9.04815H76.0059V8.4187H76.5567V7.47453H77.1861ZM79.0745 7.00244H79.8613V9.12683H79.94C80.0973 8.73343 80.4907 8.49738 81.0415 8.49738C81.8283 8.49738 82.3791 8.96947 82.3791 9.91364V12.2741H81.5923V10.071C81.5923 9.52024 81.2775 9.20551 80.8055 9.20551C80.2547 9.20551 79.8613 9.59892 79.8613 10.1497V12.3528H79.0745C79.1532 12.3528 79.0745 7.00244 79.0745 7.00244ZM86.5492 11.2512C86.3918 11.8807 85.7624 12.2741 84.9756 12.2741C83.9527 12.2741 83.2446 11.4873 83.2446 10.3857C83.2446 9.12683 83.874 8.4187 84.9756 8.4187C85.9984 8.4187 86.7065 9.04815 86.7065 10.307V10.6218H84.0314C84.0314 11.2512 84.4248 11.6446 84.9756 11.6446C85.4476 11.6446 85.7624 11.4873 85.841 11.1725C85.841 11.0939 86.5492 11.2512 86.5492 11.2512ZM83.9527 9.99232H85.841C85.841 9.44155 85.4476 9.04815 84.8969 9.04815C84.4248 9.04815 84.0314 9.44155 83.9527 9.99232Z" fill="#757575"/>
<path id="Vector_2" d="M107.636 0.708129C109.524 0.708129 111.176 2.20307 111.176 4.24878V29.0333C111.176 30.9217 109.681 32.574 107.636 32.574H4.1701C2.28175 32.574 0.629448 31.079 0.629448 29.0333V4.1701C0.629448 2.28175 2.12439 0.629449 4.1701 0.629449H107.636M107.636 0H4.1701C1.88834 0 0 1.88835 0 4.1701V28.9546C0 31.2364 1.88834 33.1247 4.1701 33.1247H107.636C109.917 33.1247 111.806 31.2364 111.806 28.9546V4.1701C111.727 1.88835 109.839 0 107.636 0Z" fill="#757575"/>
</g>
</g>
</svg>
