<svg width="164" height="45" viewBox="0 0 164 45" fill="none" xmlns="http://www.w3.org/2000/svg">
<path d="M62.6 15.1V29H60.32V22.92H53.78V29H51.5V15.1H53.78V21.06H60.32V15.1H62.6ZM75.7016 23.22C75.7016 23.6333 75.6749 24.0067 75.6216 24.34H67.2016C67.2682 25.22 67.5949 25.9267 68.1816 26.46C68.7682 26.9933 69.4882 27.26 70.3416 27.26C71.5682 27.26 72.4349 26.7467 72.9416 25.72H75.4016C75.0682 26.7333 74.4616 27.5667 73.5816 28.22C72.7149 28.86 71.6349 29.18 70.3416 29.18C69.2882 29.18 68.3416 28.9467 67.5016 28.48C66.6749 28 66.0216 27.3333 65.5416 26.48C65.0749 25.6133 64.8416 24.6133 64.8416 23.48C64.8416 22.3467 65.0682 21.3533 65.5216 20.5C65.9882 19.6333 66.6349 18.9667 67.4616 18.5C68.3016 18.0333 69.2616 17.8 70.3416 17.8C71.3816 17.8 72.3082 18.0267 73.1216 18.48C73.9349 18.9333 74.5682 19.5733 75.0216 20.4C75.4749 21.2133 75.7016 22.1533 75.7016 23.22ZM73.3216 22.5C73.3082 21.66 73.0082 20.9867 72.4216 20.48C71.8349 19.9733 71.1082 19.72 70.2416 19.72C69.4549 19.72 68.7816 19.9733 68.2216 20.48C67.6616 20.9733 67.3282 21.6467 67.2216 22.5H73.3216ZM77.1853 23.44C77.1853 22.3333 77.412 21.3533 77.8653 20.5C78.332 19.6467 78.9586 18.9867 79.7453 18.52C80.5453 18.04 81.4253 17.8 82.3853 17.8C83.252 17.8 84.0053 17.9733 84.6453 18.32C85.2986 18.6533 85.8186 19.0733 86.2053 19.58V17.98H88.5053V29H86.2053V27.36C85.8186 27.88 85.292 28.3133 84.6253 28.66C83.9586 29.0067 83.1986 29.18 82.3453 29.18C81.3986 29.18 80.532 28.94 79.7453 28.46C78.9586 27.9667 78.332 27.2867 77.8653 26.42C77.412 25.54 77.1853 24.5467 77.1853 23.44ZM86.2053 23.48C86.2053 22.72 86.0453 22.06 85.7253 21.5C85.4186 20.94 85.012 20.5133 84.5053 20.22C83.9986 19.9267 83.452 19.78 82.8653 19.78C82.2786 19.78 81.732 19.9267 81.2253 20.22C80.7186 20.5 80.3053 20.92 79.9853 21.48C79.6786 22.0267 79.5253 22.68 79.5253 23.44C79.5253 24.2 79.6786 24.8667 79.9853 25.44C80.3053 26.0133 80.7186 26.4533 81.2253 26.76C81.7453 27.0533 82.292 27.2 82.8653 27.2C83.452 27.2 83.9986 27.0533 84.5053 26.76C85.012 26.4667 85.4186 26.04 85.7253 25.48C86.0453 24.9067 86.2053 24.24 86.2053 23.48ZM93.78 14.2V29H91.5V14.2H93.78ZM99.4334 19.84V25.94C99.4334 26.3533 99.5268 26.6533 99.7134 26.84C99.9134 27.0133 100.247 27.1 100.713 27.1H102.113V29H100.313C99.2868 29 98.5001 28.76 97.9534 28.28C97.4068 27.8 97.1334 27.02 97.1334 25.94V19.84H95.8334V17.98H97.1334V15.24H99.4334V17.98H102.113V19.84H99.4334ZM109.915 17.8C110.755 17.8 111.502 17.98 112.155 18.34C112.822 18.7 113.342 19.2333 113.715 19.94C114.102 20.6467 114.295 21.5 114.295 22.5V29H112.035V22.84C112.035 21.8533 111.788 21.1 111.295 20.58C110.802 20.0467 110.128 19.78 109.275 19.78C108.422 19.78 107.742 20.0467 107.235 20.58C106.742 21.1 106.495 21.8533 106.495 22.84V29H104.215V14.2H106.495V19.26C106.882 18.7933 107.368 18.4333 107.955 18.18C108.555 17.9267 109.208 17.8 109.915 17.8ZM130.543 17.8C131.41 17.8 132.183 17.98 132.863 18.34C133.556 18.7 134.096 19.2333 134.483 19.94C134.883 20.6467 135.083 21.5 135.083 22.5V29H132.823V22.84C132.823 21.8533 132.576 21.1 132.083 20.58C131.59 20.0467 130.916 19.78 130.063 19.78C129.21 19.78 128.53 20.0467 128.023 20.58C127.53 21.1 127.283 21.8533 127.283 22.84V29H125.023V22.84C125.023 21.8533 124.776 21.1 124.283 20.58C123.79 20.0467 123.116 19.78 122.263 19.78C121.41 19.78 120.73 20.0467 120.223 20.58C119.73 21.1 119.483 21.8533 119.483 22.84V29H117.203V17.98H119.483V19.24C119.856 18.7867 120.33 18.4333 120.903 18.18C121.476 17.9267 122.09 17.8 122.743 17.8C123.623 17.8 124.41 17.9867 125.103 18.36C125.796 18.7333 126.33 19.2733 126.703 19.98C127.036 19.3133 127.556 18.7867 128.263 18.4C128.97 18 129.73 17.8 130.543 17.8ZM137.224 23.44C137.224 22.3333 137.451 21.3533 137.904 20.5C138.371 19.6467 138.998 18.9867 139.784 18.52C140.584 18.04 141.464 17.8 142.424 17.8C143.291 17.8 144.044 17.9733 144.684 18.32C145.338 18.6533 145.858 19.0733 146.244 19.58V17.98H148.544V29H146.244V27.36C145.858 27.88 145.331 28.3133 144.664 28.66C143.998 29.0067 143.238 29.18 142.384 29.18C141.438 29.18 140.571 28.94 139.784 28.46C138.998 27.9667 138.371 27.2867 137.904 26.42C137.451 25.54 137.224 24.5467 137.224 23.44ZM146.244 23.48C146.244 22.72 146.084 22.06 145.764 21.5C145.458 20.94 145.051 20.5133 144.544 20.22C144.038 19.9267 143.491 19.78 142.904 19.78C142.318 19.78 141.771 19.9267 141.264 20.22C140.758 20.5 140.344 20.92 140.024 21.48C139.718 22.0267 139.564 22.68 139.564 23.44C139.564 24.2 139.718 24.8667 140.024 25.44C140.344 26.0133 140.758 26.4533 141.264 26.76C141.784 27.0533 142.331 27.2 142.904 27.2C143.491 27.2 144.038 27.0533 144.544 26.76C145.051 26.4667 145.458 26.04 145.764 25.48C146.084 24.9067 146.244 24.24 146.244 23.48ZM153.819 19.6C154.206 19.0933 154.732 18.6667 155.399 18.32C156.066 17.9733 156.819 17.8 157.659 17.8C158.619 17.8 159.492 18.04 160.279 18.52C161.079 18.9867 161.706 19.6467 162.159 20.5C162.612 21.3533 162.839 22.3333 162.839 23.44C162.839 24.5467 162.612 25.54 162.159 26.42C161.706 27.2867 161.079 27.9667 160.279 28.46C159.492 28.94 158.619 29.18 157.659 29.18C156.819 29.18 156.072 29.0133 155.419 28.68C154.766 28.3333 154.232 27.9067 153.819 27.4V34.24H151.539V17.98H153.819V19.6ZM160.519 23.44C160.519 22.68 160.359 22.0267 160.039 21.48C159.732 20.92 159.319 20.5 158.799 20.22C158.292 19.9267 157.746 19.78 157.159 19.78C156.586 19.78 156.039 19.9267 155.519 20.22C155.012 20.5133 154.599 20.94 154.279 21.5C153.972 22.06 153.819 22.72 153.819 23.48C153.819 24.24 153.972 24.9067 154.279 25.48C154.599 26.04 155.012 26.4667 155.519 26.76C156.039 27.0533 156.586 27.2 157.159 27.2C157.746 27.2 158.292 27.0533 158.799 26.76C159.319 26.4533 159.732 26.0133 160.039 25.44C160.359 24.8667 160.519 24.2 160.519 23.44Z" fill="white"/>
<path d="M15.1597 7.90506V19.3124H26.517V7.90506H34.0718V19.3124H42.0769V3.00192C42.0769 1.34401 40.7329 0 39.075 0H5.0032C2.24001 0 0 2.24001 0 5.0032V7.90506V19.3124H7.70493V7.90506H15.1597Z" fill="white"/>
<path d="M26.9172 37.0949L26.9172 25.6876L15.5599 25.6876L15.5599 37.0949L8.00511 37.0949L8.00511 25.6876L-9.75575e-06 25.6876L-1.11817e-05 41.9981C-1.13266e-05 43.656 1.34399 45 3.00191 45L37.0737 45C39.8369 45 42.0769 42.76 42.0769 39.9968L42.0769 37.0949L42.0769 25.6876L34.372 25.6876L34.372 37.0949L26.9172 37.0949Z" fill="white"/>
</svg>
