<svg width="17" height="17" viewBox="0 0 17 17" fill="none" xmlns="http://www.w3.org/2000/svg">
<g id="Grundutbildningsprogram">
<path id="Vector" d="M0.285997 5.6452H3.81479V16.9928H0.285997V5.6452ZM2.05479 0C3.18119 0.0088 4.0876 0.923999 4.0832 2.0548C4.0744 3.1812 3.15919 4.0876 2.02839 4.0832C0.906394 4.0744 0 3.1636 0 2.0416C0.0088 0.9152 0.923992 0 2.05479 0Z" fill="#757575"/>
<path id="Vector_2" d="M5.9884 5.64519H9.3676V7.19399C10.054 6.01039 11.3432 5.30639 12.7116 5.36359C16.2756 5.36359 16.94 7.71319 16.94 10.7712V16.9928H13.4992V11.4752C13.4992 10.1596 13.4992 8.46559 11.6688 8.46559C9.8384 8.46559 9.55241 9.90439 9.55241 11.3168V16.9356H5.9884V5.64519Z" fill="#757575"/>
</g>
</svg>
