<svg width="11" height="7" viewBox="0 0 11 7" fill="none" xmlns="http://www.w3.org/2000/svg">
<rect width="11" height="7" fill="#1E1E1E"/>
<g id="Desktop - 1" clip-path="url(#clip0_0_1)">
<rect width="1440" height="809" transform="translate(-605 -68)" fill="#E3E3E3"/>
<rect id="Rectangle 1" x="-605" y="-139" width="1440" height="1024" fill="#008FFF"/>
<g id="Group 8">
<path id="Vector" fill-rule="evenodd" clip-rule="evenodd" d="M0.0444809 0.422188C0.0947418 0.243022 0.182632 0.106853 0.288882 0.0435354C0.395131 -0.0197819 0.511067 -0.00507954 0.611271 0.0844194L5.49836 4.45723L10.3846 0.0829049C10.4343 0.0374363 10.4886 0.0100356 10.5442 0.00228222C10.5999 -0.00547114 10.6558 0.00657624 10.7089 0.03773C10.7619 0.0688837 10.811 0.118527 10.8533 0.183799C10.8955 0.24907 10.9302 0.328679 10.9552 0.418035C10.9802 0.50739 10.9951 0.604725 10.999 0.704428C11.0029 0.804131 10.9957 0.904231 10.9779 0.998954C10.9601 1.09368 10.932 1.18115 10.8952 1.25634C10.8584 1.33152 10.8137 1.39292 10.7636 1.43701L5.68785 5.98097C5.62903 6.03375 5.56415 6.06122 5.49836 6.06122C5.43257 6.06122 5.36768 6.03375 5.30886 5.98097L0.233129 1.43701C0.133063 1.34702 0.0570099 1.18965 0.0216463 0.999416C-0.0137172 0.80918 -0.00550554 0.601599 0.0444809 0.422188Z" fill="white"/>
<g id="Group 7">
</g>
</g>
</g>
<defs>
<clipPath id="clip0_0_1">
<rect width="1440" height="809" fill="white" transform="translate(-605 -68)"/>
</clipPath>
</defs>
</svg>
