<svg width="19" height="16" viewBox="0 0 19 16" fill="none" xmlns="http://www.w3.org/2000/svg">
<path id="Vector" fill-rule="evenodd" clip-rule="evenodd" d="M0 8C0 7.69695 0.120386 7.40631 0.334675 7.19202C0.548963 6.97774 0.839601 6.85735 1.14265 6.85735H14.3814L9.47486 1.95309C9.2603 1.73853 9.13976 1.44753 9.13976 1.14409C9.13976 0.840662 9.2603 0.549657 9.47486 0.335098C9.68942 0.120538 9.98042 0 10.2839 0C10.5873 0 10.8783 0.120538 11.0929 0.335098L17.9488 7.191C18.0552 7.29715 18.1396 7.42324 18.1972 7.56206C18.2548 7.70088 18.2845 7.8497 18.2845 8C18.2845 8.1503 18.2548 8.29912 18.1972 8.43794C18.1396 8.57676 18.0552 8.70286 17.9488 8.809L11.0929 15.6649C10.8783 15.8795 10.5873 16 10.2839 16C9.98042 16 9.68942 15.8795 9.47486 15.6649C9.2603 15.4503 9.13976 15.1593 9.13976 14.8559C9.13976 14.5525 9.2603 14.2615 9.47486 14.0469L14.3814 9.14265H1.14265C0.839601 9.14265 0.548963 9.02227 0.334675 8.80798C0.120386 8.59369 0 8.30305 0 8Z" fill="#008FFF"/>
</svg>
